<svg version="1.1" viewBox="0.0 0.0 600.0 371.0" fill="none" stroke="none" stroke-linecap="square" stroke-miterlimit="10" width="600" height="371" xmlns:xlink="http://www.w3.org/1999/xlink" xmlns="http://www.w3.org/2000/svg"><path fill="#ffffff" d="M0 0L600.0 0L600.0 371.0L0 371.0L0 0Z" fill-rule="nonzero"/><path stroke="#333333" stroke-width="1.0" stroke-linecap="butt" d="M162.5 54.5L162.5 332.5" fill-rule="nonzero"/><path stroke="#cccccc" stroke-width="1.0" stroke-linecap="butt" d="M267.5 54.5L267.5 332.5" fill-rule="nonzero"/><path stroke="#cccccc" stroke-width="1.0" stroke-linecap="butt" d="M372.5 54.5L372.5 332.5" fill-rule="nonzero"/><path stroke="#cccccc" stroke-width="1.0" stroke-linecap="butt" d="M476.5 54.5L476.5 332.5" fill-rule="nonzero"/><path stroke="#cccccc" stroke-width="1.0" stroke-linecap="butt" d="M581.5 54.5L581.5 332.5" fill-rule="nonzero"/><clipPath id="id_0"><path d="M162.73 54.916668L581.45 54.916668L581.45 332.45L162.73 332.45L162.73 54.916668Z" clip-rule="nonzero"/></clipPath><path stroke="#000000" stroke-width="2.0" stroke-linecap="butt" stroke-opacity="0.0" clip-path="url(#id_0)" d="M163.0 82.0L163.0 65.0L398.0 65.0C399.10458 65.0 400.0 65.89543 400.0 67.0L400.0 80.0C400.0 81.10457 399.10458 82.0 398.0 82.0Z" fill-rule="nonzero"/><path fill="#4285f4" clip-path="url(#id_0)" d="M163.0 82.0L163.0 65.0L398.0 65.0C399.10458 65.0 400.0 65.89543 400.0 67.0L400.0 80.0C400.0 81.10457 399.10458 82.0 398.0 82.0Z" fill-rule="nonzero"/><path stroke="#000000" stroke-width="2.0" stroke-linecap="butt" stroke-opacity="0.0" clip-path="url(#id_0)" d="M163.0 109.0L163.0 92.0L482.0 92.0C483.10458 92.0 484.0 92.89543 484.0 94.0L484.0 107.0C484.0 108.10457 483.10458 109.0 482.0 109.0Z" fill-rule="nonzero"/><path fill="#4285f4" clip-path="url(#id_0)" d="M163.0 109.0L163.0 92.0L482.0 92.0C483.10458 92.0 484.0 92.89543 484.0 94.0L484.0 107.0C484.0 108.10457 483.10458 109.0 482.0 109.0Z" fill-rule="nonzero"/><path stroke="#000000" stroke-width="2.0" stroke-linecap="butt" stroke-opacity="0.0" clip-path="url(#id_0)" d="M163.0 136.0L163.0 119.0L418.0 119.0C419.10458 119.0 420.0 119.89543 420.0 121.0L420.0 134.0C420.0 135.10457 419.10458 136.0 418.0 136.0Z" fill-rule="nonzero"/><path fill="#4285f4" clip-path="url(#id_0)" d="M163.0 136.0L163.0 119.0L418.0 119.0C419.10458 119.0 420.0 119.89543 420.0 121.0L420.0 134.0C420.0 135.10457 419.10458 136.0 418.0 136.0Z" fill-rule="nonzero"/><path stroke="#000000" stroke-width="2.0" stroke-linecap="butt" stroke-opacity="0.0" clip-path="url(#id_0)" d="M163.0 162.0L163.0 145.0L480.0 145.0C481.10458 145.0 482.0 145.89543 482.0 147.0L482.0 160.0C482.0 161.10457 481.10458 162.0 480.0 162.0Z" fill-rule="nonzero"/><path fill="#4285f4" clip-path="url(#id_0)" d="M163.0 162.0L163.0 145.0L480.0 145.0C481.10458 145.0 482.0 145.89543 482.0 147.0L482.0 160.0C482.0 161.10457 481.10458 162.0 480.0 162.0Z" fill-rule="nonzero"/><path stroke="#000000" stroke-width="2.0" stroke-linecap="butt" stroke-opacity="0.0" clip-path="url(#id_0)" d="M163.0 189.0L163.0 172.0L428.0 172.0C429.10458 172.0 430.0 172.89543 430.0 174.0L430.0 187.0C430.0 188.10457 429.10458 189.0 428.0 189.0Z" fill-rule="nonzero"/><path fill="#4285f4" clip-path="url(#id_0)" d="M163.0 189.0L163.0 172.0L428.0 172.0C429.10458 172.0 430.0 172.89543 430.0 174.0L430.0 187.0C430.0 188.10457 429.10458 189.0 428.0 189.0Z" fill-rule="nonzero"/><path stroke="#000000" stroke-width="2.0" stroke-linecap="butt" stroke-opacity="0.0" clip-path="url(#id_0)" d="M163.0 216.0L163.0 199.0L394.0 199.0C395.10458 199.0 396.0 199.89543 396.0 201.0L396.0 214.0C396.0 215.10457 395.10458 216.0 394.0 216.0Z" fill-rule="nonzero"/><path fill="#4285f4" clip-path="url(#id_0)" d="M163.0 216.0L163.0 199.0L394.0 199.0C395.10458 199.0 396.0 199.89543 396.0 201.0L396.0 214.0C396.0 215.10457 395.10458 216.0 394.0 216.0Z" fill-rule="nonzero"/><path stroke="#000000" stroke-width="2.0" stroke-linecap="butt" stroke-opacity="0.0" clip-path="url(#id_0)" d="M163.0 243.0L163.0 226.0L356.0 226.0C357.10458 226.0 358.0 226.89543 358.0 228.0L358.0 241.0C358.0 242.10457 357.10458 243.0 356.0 243.0Z" fill-rule="nonzero"/><path fill="#4285f4" clip-path="url(#id_0)" d="M163.0 243.0L163.0 226.0L356.0 226.0C357.10458 226.0 358.0 226.89543 358.0 228.0L358.0 241.0C358.0 242.10457 357.10458 243.0 356.0 243.0Z" fill-rule="nonzero"/><path stroke="#000000" stroke-width="2.0" stroke-linecap="butt" stroke-opacity="0.0" clip-path="url(#id_0)" d="M163.0 270.0L163.0 253.0L368.0 253.0C369.10458 253.0 370.0 253.89543 370.0 255.0L370.0 268.0C370.0 269.10458 369.10458 270.0 368.0 270.0Z" fill-rule="nonzero"/><path fill="#4285f4" clip-path="url(#id_0)" d="M163.0 270.0L163.0 253.0L368.0 253.0C369.10458 253.0 370.0 253.89543 370.0 255.0L370.0 268.0C370.0 269.10458 369.10458 270.0 368.0 270.0Z" fill-rule="nonzero"/><path stroke="#000000" stroke-width="2.0" stroke-linecap="butt" stroke-opacity="0.0" clip-path="url(#id_0)" d="M163.0 297.0L163.0 280.0L412.0 280.0C413.10458 280.0 414.0 280.89542 414.0 282.0L414.0 295.0C414.0 296.10458 413.10458 297.0 412.0 297.0Z" fill-rule="nonzero"/><path fill="#4285f4" clip-path="url(#id_0)" d="M163.0 297.0L163.0 280.0L412.0 280.0C413.10458 280.0 414.0 280.89542 414.0 282.0L414.0 295.0C414.0 296.10458 413.10458 297.0 412.0 297.0Z" fill-rule="nonzero"/><path stroke="#000000" stroke-width="2.0" stroke-linecap="butt" stroke-opacity="0.0" clip-path="url(#id_0)" d="M163.0 323.0L163.0 306.0L449.0 306.0C450.10458 306.0 451.0 306.89542 451.0 308.0L451.0 321.0C451.0 322.10458 450.10458 323.0 449.0 323.0Z" fill-rule="nonzero"/><path fill="#4285f4" clip-path="url(#id_0)" d="M163.0 323.0L163.0 306.0L449.0 306.0C450.10458 306.0 451.0 306.89542 451.0 308.0L451.0 321.0C451.0 322.10458 450.10458 323.0 449.0 323.0Z" fill-rule="nonzero"/><path fill="#000000" d="M29.550013 224.91771L20.956263 224.91771L20.956263 223.85521L29.550013 223.85521L29.550013 224.91771ZM22.175013 221.88646L20.956263 221.88646L20.956263 220.82396L22.175013 220.82396L22.175013 221.88646ZM29.550013 221.88646L23.331263 221.88646L23.331263 220.82396L29.550013 220.82396L29.550013 221.88646ZM29.550013 218.63646L24.143763 218.63646L24.143763 219.57396L23.331263 219.57396L23.331263 218.63646L22.659388 218.63646Q22.034388 218.63646 21.737513 218.52708Q21.315638 218.37083 21.065638 217.99583Q20.815638 217.60521 20.815638 216.91771Q20.815638 216.46458 20.925013 215.93333L21.831263 216.08958Q21.784388 216.41771 21.784388 216.71458Q21.784388 217.19896 21.987513 217.40208Q22.190638 217.58958 22.753138 217.58958L23.331263 217.58958L23.331263 216.37083L24.143763 216.37083L24.143763 217.58958L29.550013 217.58958L29.550013 218.63646ZM27.550013 211.63646L27.675013 210.54271Q28.628138 210.79271 29.159388 211.49583Q29.690638 212.19896 29.690638 213.27708Q29.690638 214.63646 28.846888 215.44896Q28.003138 216.24583 26.487513 216.24583Q24.925013 216.24583 24.065638 215.43333Q23.190638 214.62083 23.190638 213.33958Q23.190638 212.08958 24.034388 211.30833Q24.878138 210.51146 26.425013 210.51146Q26.518763 210.51146 26.706263 210.51146L26.706263 215.15208Q27.737513 215.08958 28.284388 214.57396Q28.815638 214.05833 28.815638 213.27708Q28.815638 212.69896 28.518763 212.29271Q28.206263 211.87083 27.550013 211.63646ZM25.846888 215.08958L25.846888 211.62083Q25.050013 211.68333 24.659388 212.01146Q24.050013 212.52708 24.050013 213.32396Q24.050013 214.05833 24.534388 214.55833Q25.018763 215.04271 25.846888 215.08958ZM27.690638 209.30833L27.534388 208.27708Q28.159388 208.18333 28.487513 207.79271Q28.815638 207.38646 28.815638 206.65208Q28.815638 205.93333 28.534388 205.58958Q28.237513 205.23021 27.831263 205.23021Q27.471888 205.23021 27.268763 205.54271Q27.128138 205.76146 26.909388 206.62083Q26.612513 207.77708 26.409388 208.23021Q26.190638 208.66771 25.815638 208.90208Q25.440638 209.13646 24.971888 209.13646Q24.565638 209.13646 24.206263 208.94896Q23.846888 208.76146 23.612513 208.43333Q23.440638 208.18333 23.315638 207.76146Q23.190638 207.33958 23.190638 206.83958Q23.190638 206.12083 23.409388 205.57396Q23.612513 205.01146 23.971888 204.74583Q24.331263 204.48021 24.925013 204.38646L25.065638 205.41771Q24.596888 205.48021 24.331263 205.82396Q24.050013 206.15208 24.050013 206.77708Q24.050013 207.49583 24.300013 207.80833Q24.534388 208.12083 24.862513 208.12083Q25.065638 208.12083 25.221888 207.99583Q25.393763 207.85521 25.503138 207.58958Q25.565638 207.43333 25.768763 206.65208Q26.081263 205.52708 26.268763 205.08958Q26.456263 204.65208 26.815638 204.40208Q27.175013 204.15208 27.721888 204.15208Q28.253138 204.15208 28.721888 204.46458Q29.175013 204.76146 29.440638 205.33958Q29.690638 205.91771 29.690638 206.65208Q29.690638 207.87083 29.190638 208.51146Q28.675013 209.13646 27.690638 209.30833ZM31.940638 201.88646L23.331263 201.88646L23.331263 200.93333L24.128138 200.93333Q23.659388 200.58958 23.425013 200.16771Q23.190638 199.73021 23.190638 199.12083Q23.190638 198.32396 23.596888 197.71458Q24.003138 197.10521 24.753138 196.80833Q25.503138 196.49583 26.393763 196.49583Q27.346888 196.49583 28.112513 196.83958Q28.878138 197.16771 29.284388 197.82396Q29.690638 198.48021 29.690638 199.19896Q29.690638 199.73021 29.471888 200.15208Q29.237513 200.57396 28.909388 200.83958L31.940638 200.83958L31.940638 201.88646ZM26.471888 200.93333Q27.675013 200.93333 28.253138 200.44896Q28.815638 199.96458 28.815638 199.27708Q28.815638 198.57396 28.221888 198.07396Q27.628138 197.57396 26.378138 197.57396Q25.190638 197.57396 24.612513 198.05833Q24.018763 198.54271 24.018763 199.23021Q24.018763 199.90208 24.643763 200.41771Q25.268763 200.93333 26.471888 200.93333ZM28.784388 190.82396Q29.284388 191.41771 29.487513 191.96458Q29.690638 192.49583 29.690638 193.12083Q29.690638 194.15208 29.190638 194.69896Q28.690638 195.24583 27.909388 195.24583Q27.456263 195.24583 27.081263 195.04271Q26.690638 194.83958 26.471888 194.49583Q26.237513 194.15208 26.128138 193.73021Q26.034388 193.43333 25.956263 192.79271Q25.815638 191.52708 25.596888 190.91771Q25.378138 190.91771 25.331263 190.91771Q24.675013 190.91771 24.409388 191.21458Q24.065638 191.62083 24.065638 192.41771Q24.065638 193.15208 24.331263 193.51146Q24.581263 193.87083 25.237513 194.04271L25.096888 195.07396Q24.440638 194.93333 24.034388 194.60521Q23.628138 194.27708 23.409388 193.66771Q23.190638 193.05833 23.190638 192.26146Q23.190638 191.46458 23.378138 190.96458Q23.565638 190.46458 23.846888 190.23021Q24.128138 189.99583 24.565638 189.90208Q24.831263 189.85521 25.534388 189.85521L26.940638 189.85521Q28.409388 189.85521 28.800013 189.79271Q29.190638 189.71458 29.550013 189.51146L29.550013 190.62083Q29.221888 190.77708 28.784388 190.82396ZM26.425013 190.91771Q26.659388 191.49583 26.831263 192.63646Q26.925013 193.29271 27.050013 193.55833Q27.159388 193.82396 27.378138 193.98021Q27.596888 194.12083 27.878138 194.12083Q28.300013 194.12083 28.581263 193.80833Q28.862513 193.48021 28.862513 192.87083Q28.862513 192.26146 28.596888 191.79271Q28.331263 191.30833 27.862513 191.08958Q27.503138 190.91771 26.815638 190.91771L26.425013 190.91771ZM29.550013 187.88646L23.331263 187.88646L23.331263 186.94896L24.206263 186.94896Q23.190638 186.26146 23.190638 184.96458Q23.190638 184.40208 23.393763 183.93333Q23.596888 183.44896 23.925013 183.21458Q24.253138 182.98021 24.690638 182.88646Q24.987513 182.83958 25.721888 182.83958L29.550013 182.83958L29.550013 183.88646L25.768763 183.88646Q25.112513 183.88646 24.800013 184.01146Q24.487513 184.13646 24.300013 184.44896Q24.096888 184.76146 24.096888 185.18333Q24.096888 185.85521 24.534388 186.35521Q24.956263 186.83958 26.143763 186.83958L29.550013 186.83958L29.550013 187.88646Z" fill-rule="nonzero"/><path fill="#000000" d="M119.7925 74.001045L120.9175 74.29792Q120.55813 75.688545 119.63625 76.42292Q118.71438 77.157295 117.37063 77.157295Q115.98 77.157295 115.105 76.594795Q114.23 76.032295 113.77688 74.969795Q113.32375 73.89167 113.32375 72.657295Q113.32375 71.313545 113.83938 70.313545Q114.355 69.313545 115.2925 68.79792Q116.24563 68.282295 117.38625 68.282295Q118.6675 68.282295 119.5425 68.938545Q120.43313 69.594795 120.77688 70.782295L119.65188 71.04792Q119.355 70.11042 118.77688 69.688545Q118.21438 69.251045 117.355 69.251045Q116.37063 69.251045 115.69875 69.73542Q115.0425 70.20417 114.76125 71.001045Q114.49563 71.79792 114.49563 72.657295Q114.49563 73.751045 114.80813 74.563545Q115.13625 75.376045 115.80813 75.782295Q116.48 76.188545 117.27688 76.188545Q118.23 76.188545 118.88625 75.64167Q119.55813 75.094795 119.7925 74.001045ZM126.58938 76.251045Q125.99563 76.751045 125.44875 76.95417Q124.9175 77.157295 124.2925 77.157295Q123.26125 77.157295 122.71438 76.657295Q122.1675 76.157295 122.1675 75.376045Q122.1675 74.92292 122.37063 74.54792Q122.57375 74.157295 122.9175 73.938545Q123.26125 73.70417 123.68313 73.594795Q123.98 73.501045 124.62063 73.42292Q125.88625 73.282295 126.49563 73.063545Q126.49563 72.844795 126.49563 72.79792Q126.49563 72.14167 126.19875 71.876045Q125.7925 71.532295 124.99563 71.532295Q124.26125 71.532295 123.90188 71.79792Q123.5425 72.04792 123.37063 72.70417L122.33938 72.563545Q122.48 71.907295 122.80813 71.501045Q123.13625 71.094795 123.74563 70.876045Q124.355 70.657295 125.15188 70.657295Q125.94875 70.657295 126.44875 70.844795Q126.94875 71.032295 127.18313 71.313545Q127.4175 71.594795 127.51125 72.032295Q127.55813 72.29792 127.55813 73.001045L127.55813 74.407295Q127.55813 75.876045 127.62063 76.26667Q127.69875 76.657295 127.90188 77.01667L126.7925 77.01667Q126.63625 76.688545 126.58938 76.251045ZM126.49563 73.89167Q125.9175 74.126045 124.77688 74.29792Q124.12063 74.39167 123.855 74.51667Q123.58938 74.626045 123.43313 74.844795Q123.2925 75.063545 123.2925 75.344795Q123.2925 75.76667 123.605 76.04792Q123.93313 76.32917 124.5425 76.32917Q125.15188 76.32917 125.62063 76.063545Q126.105 75.79792 126.32375 75.32917Q126.49563 74.969795 126.49563 74.282295L126.49563 73.89167ZM129.52689 77.01667L129.52689 70.79792L130.46439 70.79792L130.46439 71.67292Q131.15189 70.657295 132.44876 70.657295Q133.01126 70.657295 133.48001 70.86042Q133.96439 71.063545 134.19876 71.39167Q134.43314 71.719795 134.52689 72.157295Q134.57376 72.45417 134.57376 73.188545L134.57376 77.01667L133.52689 77.01667L133.52689 73.23542Q133.52689 72.57917 133.40189 72.26667Q133.27689 71.95417 132.96439 71.76667Q132.65189 71.563545 132.23001 71.563545Q131.55814 71.563545 131.05814 72.001045Q130.57376 72.42292 130.57376 73.61042L130.57376 77.01667L129.52689 77.01667ZM140.58939 76.251045Q139.99564 76.751045 139.44876 76.95417Q138.91751 77.157295 138.29251 77.157295Q137.26126 77.157295 136.71439 76.657295Q136.16751 76.157295 136.16751 75.376045Q136.16751 74.92292 136.37064 74.54792Q136.57376 74.157295 136.91751 73.938545Q137.26126 73.70417 137.68314 73.594795Q137.98001 73.501045 138.62064 73.42292Q139.88626 73.282295 140.49564 73.063545Q140.49564 72.844795 140.49564 72.79792Q140.49564 72.14167 140.19876 71.876045Q139.79251 71.532295 138.99564 71.532295Q138.26126 71.532295 137.90189 71.79792Q137.54251 72.04792 137.37064 72.70417L136.33939 72.563545Q136.48001 71.907295 136.80814 71.501045Q137.13626 71.094795 137.74564 70.876045Q138.35501 70.657295 139.15189 70.657295Q139.94876 70.657295 140.44876 70.844795Q140.94876 71.032295 141.18314 71.313545Q141.41751 71.594795 141.51126 72.032295Q141.55814 72.29792 141.55814 73.001045L141.55814 74.407295Q141.55814 75.876045 141.62064 76.26667Q141.69876 76.657295 141.90189 77.01667L140.79251 77.01667Q140.63626 76.688545 140.58939 76.251045ZM140.49564 73.89167Q139.91751 74.126045 138.77689 74.29792Q138.12064 74.39167 137.85501 74.51667Q137.58939 74.626045 137.43314 74.844795Q137.29251 75.063545 137.29251 75.344795Q137.29251 75.76667 137.60501 76.04792Q137.93314 76.32917 138.54251 76.32917Q139.15189 76.32917 139.62064 76.063545Q140.10501 75.79792 140.32376 75.32917Q140.49564 74.969795 140.49564 74.282295L140.49564 73.89167ZM147.55814 77.01667L147.55814 76.23542Q146.96439 77.157295 145.82376 77.157295Q145.07376 77.157295 144.44876 76.751045Q143.82376 76.32917 143.48001 75.594795Q143.13626 74.86042 143.13626 73.907295Q143.13626 72.98542 143.44876 72.219795Q143.76126 71.45417 144.38626 71.063545Q145.01126 70.657295 145.77689 70.657295Q146.33939 70.657295 146.77689 70.89167Q147.21439 71.126045 147.49564 71.501045L147.49564 68.42292L148.54251 68.42292L148.54251 77.01667L147.55814 77.01667ZM144.23001 73.907295Q144.23001 75.11042 144.73001 75.70417Q145.23001 76.282295 145.91751 76.282295Q146.60501 76.282295 147.08939 75.719795Q147.57376 75.157295 147.57376 74.001045Q147.57376 72.719795 147.07376 72.126045Q146.58939 71.532295 145.87064 71.532295Q145.16751 71.532295 144.69876 72.11042Q144.23001 72.67292 144.23001 73.907295ZM154.58939 76.251045Q153.99564 76.751045 153.44876 76.95417Q152.91751 77.157295 152.29251 77.157295Q151.26126 77.157295 150.71439 76.657295Q150.16751 76.157295 150.16751 75.376045Q150.16751 74.92292 150.37064 74.54792Q150.57376 74.157295 150.91751 73.938545Q151.26126 73.70417 151.68314 73.594795Q151.98001 73.501045 152.62064 73.42292Q153.88626 73.282295 154.49564 73.063545Q154.49564 72.844795 154.49564 72.79792Q154.49564 72.14167 154.19876 71.876045Q153.79251 71.532295 152.99564 71.532295Q152.26126 71.532295 151.90189 71.79792Q151.54251 72.04792 151.37064 72.70417L150.33939 72.563545Q150.48001 71.907295 150.80814 71.501045Q151.13626 71.094795 151.74564 70.876045Q152.35501 70.657295 153.15189 70.657295Q153.94876 70.657295 154.44876 70.844795Q154.94876 71.032295 155.18314 71.313545Q155.41751 71.594795 155.51126 72.032295Q155.55814 72.29792 155.55814 73.001045L155.55814 74.407295Q155.55814 75.876045 155.62064 76.26667Q155.69876 76.657295 155.90189 77.01667L154.79251 77.01667Q154.63626 76.688545 154.58939 76.251045ZM154.49564 73.89167Q153.91751 74.126045 152.77689 74.29792Q152.12064 74.39167 151.85501 74.51667Q151.58939 74.626045 151.43314 74.844795Q151.29251 75.063545 151.29251 75.344795Q151.29251 75.76667 151.60501 76.04792Q151.93314 76.32917 152.54251 76.32917Q153.15189 76.32917 153.62064 76.063545Q154.10501 75.79792 154.32376 75.32917Q154.49564 74.969795 154.49564 74.282295L154.49564 73.89167Z" fill-rule="nonzero"/><path fill="#000000" d="M130.79251 100.81586L131.91751 101.11273Q131.55814 102.50336 130.63626 103.23773Q129.71439 103.97211 128.37064 103.97211Q126.98 103.97211 126.105 103.40961Q125.23 102.84711 124.77688 101.78461Q124.32375 100.70648 124.32375 99.47211Q124.32375 98.12836 124.83938 97.12836Q125.355 96.12836 126.2925 95.61273Q127.24563 95.09711 128.38626 95.09711Q129.66751 95.09711 130.54251 95.75336Q131.43314 96.40961 131.77689 97.59711L130.65189 97.86273Q130.35501 96.92523 129.77689 96.50336Q129.21439 96.06586 128.35501 96.06586Q127.37063 96.06586 126.69875 96.55023Q126.0425 97.01898 125.76125 97.81586Q125.49563 98.61273 125.49563 99.47211Q125.49563 100.56586 125.80813 101.37836Q126.13625 102.19086 126.80813 102.59711Q127.48 103.00336 128.27689 103.00336Q129.23001 103.00336 129.88626 102.45648Q130.55814 101.90961 130.79251 100.81586ZM133.52689 103.83148L133.52689 95.23773L134.57376 95.23773L134.57376 98.31586Q135.30814 97.47211 136.43314 97.47211Q137.13626 97.47211 137.63626 97.75336Q138.15189 98.01898 138.37064 98.50336Q138.58939 98.97211 138.58939 99.89398L138.58939 103.83148L137.54251 103.83148L137.54251 99.89398Q137.54251 99.09711 137.19876 98.73773Q136.85501 98.37836 136.23001 98.37836Q135.76126 98.37836 135.33939 98.62836Q134.93314 98.86273 134.74564 99.28461Q134.57376 99.69086 134.57376 100.42523L134.57376 103.83148L133.52689 103.83148ZM140.52689 96.45648L140.52689 95.23773L141.58939 95.23773L141.58939 96.45648L140.52689 96.45648ZM140.52689 103.83148L140.52689 97.61273L141.58939 97.61273L141.58939 103.83148L140.52689 103.83148ZM143.52689 103.83148L143.52689 97.61273L144.46439 97.61273L144.46439 98.48773Q145.15189 97.47211 146.44876 97.47211Q147.01126 97.47211 147.48001 97.67523Q147.96439 97.87836 148.19876 98.20648Q148.43314 98.53461 148.52689 98.97211Q148.57376 99.26898 148.57376 100.00336L148.57376 103.83148L147.52689 103.83148L147.52689 100.05023Q147.52689 99.39398 147.40189 99.08148Q147.27689 98.76898 146.96439 98.58148Q146.65189 98.37836 146.23001 98.37836Q145.55814 98.37836 145.05814 98.81586Q144.57376 99.23773 144.57376 100.42523L144.57376 103.83148L143.52689 103.83148ZM154.58939 103.06586Q153.99564 103.56586 153.44876 103.76898Q152.91751 103.97211 152.29251 103.97211Q151.26126 103.97211 150.71439 103.47211Q150.16751 102.97211 150.16751 102.19086Q150.16751 101.73773 150.37064 101.36273Q150.57376 100.97211 150.91751 100.75336Q151.26126 100.51898 151.68314 100.40961Q151.98001 100.31586 152.62064 100.23773Q153.88626 100.09711 154.49564 99.87836Q154.49564 99.65961 154.49564 99.61273Q154.49564 98.95648 154.19876 98.69086Q153.79251 98.34711 152.99564 98.34711Q152.26126 98.34711 151.90189 98.61273Q151.54251 98.86273 151.37064 99.51898L150.33939 99.37836Q150.48001 98.72211 150.80814 98.31586Q151.13626 97.90961 151.74564 97.69086Q152.35501 97.47211 153.15189 97.47211Q153.94876 97.47211 154.44876 97.65961Q154.94876 97.84711 155.18314 98.12836Q155.41751 98.40961 155.51126 98.84711Q155.55814 99.11273 155.55814 99.81586L155.55814 101.22211Q155.55814 102.69086 155.62064 103.08148Q155.69876 103.47211 155.90189 103.83148L154.79251 103.83148Q154.63626 103.50336 154.58939 103.06586ZM154.49564 100.70648Q153.91751 100.94086 152.77689 101.11273Q152.12064 101.20648 151.85501 101.33148Q151.58939 101.44086 151.43314 101.65961Q151.29251 101.87836 151.29251 102.15961Q151.29251 102.58148 151.60501 102.86273Q151.93314 103.14398 152.54251 103.14398Q153.15189 103.14398 153.62064 102.87836Q154.10501 102.61273 154.32376 102.14398Q154.49564 101.78461 154.49564 101.09711L154.49564 100.70648Z" fill-rule="nonzero"/><path fill="#000000" d="M111.68313 127.2713L111.68313 126.2713L115.30813 126.25568L115.30813 129.44318Q114.48 130.11505 113.58938 130.4588Q112.69875 130.78693 111.76125 130.78693Q110.49563 130.78693 109.44875 130.25568Q108.4175 129.7088 107.88625 128.69318Q107.37063 127.66193 107.37063 126.3963Q107.37063 125.13068 107.88625 124.05255Q108.4175 122.9588 109.40188 122.44318Q110.38625 121.91193 111.6675 121.91193Q112.605 121.91193 113.355 122.2088Q114.105 122.50568 114.52688 123.05255Q114.96438 123.5838 115.18313 124.4588L114.1675 124.74005Q113.96438 124.0838 113.6675 123.7088Q113.38625 123.3338 112.855 123.11505Q112.32375 122.88068 111.68313 122.88068Q110.90188 122.88068 110.32375 123.11505Q109.76125 123.34943 109.40188 123.74005Q109.05813 124.13068 108.87063 124.59943Q108.5425 125.3963 108.5425 126.31818Q108.5425 127.47443 108.93313 128.25568Q109.33938 129.0213 110.08938 129.3963Q110.83938 129.7713 111.69875 129.7713Q112.43313 129.7713 113.13625 129.49005Q113.83938 129.19318 114.19875 128.88068L114.19875 127.2713L111.68313 127.2713ZM120.77688 128.6463L121.87063 128.7713Q121.62063 129.72443 120.9175 130.25568Q120.21438 130.78693 119.13625 130.78693Q117.77688 130.78693 116.96438 129.94318Q116.1675 129.09943 116.1675 127.5838Q116.1675 126.0213 116.98 125.16193Q117.7925 124.28693 119.07375 124.28693Q120.32375 124.28693 121.105 125.13068Q121.90188 125.97443 121.90188 127.5213Q121.90188 127.61505 121.90188 127.80255L117.26125 127.80255Q117.32375 128.8338 117.83938 129.38068Q118.355 129.91193 119.13625 129.91193Q119.71438 129.91193 120.12063 129.61505Q120.5425 129.30255 120.77688 128.6463ZM117.32375 126.94318L120.7925 126.94318Q120.73 126.1463 120.40188 125.75568Q119.88625 125.1463 119.08938 125.1463Q118.355 125.1463 117.855 125.63068Q117.37063 126.11505 117.32375 126.94318ZM123.51125 130.6463L123.51125 124.42755L124.46438 124.42755L124.46438 125.36505Q124.82375 124.7088 125.12063 124.50568Q125.43313 124.28693 125.80813 124.28693Q126.33938 124.28693 126.88625 124.61505L126.52688 125.59943Q126.13625 125.36505 125.76125 125.36505Q125.40188 125.36505 125.12063 125.5838Q124.855 125.78693 124.74563 126.16193Q124.55813 126.72443 124.55813 127.38068L124.55813 130.6463L123.51125 130.6463ZM127.52688 130.6463L127.52688 124.42755L128.46439 124.42755L128.46439 125.30255Q128.76126 124.8338 129.24564 124.56818Q129.73001 124.28693 130.35501 124.28693Q131.04251 124.28693 131.48001 124.56818Q131.93314 124.84943 132.10501 125.36505Q132.85501 124.28693 134.02689 124.28693Q134.96439 124.28693 135.44876 124.80255Q135.94876 125.30255 135.94876 126.38068L135.94876 130.6463L134.90189 130.6463L134.90189 126.72443Q134.90189 126.09943 134.79251 125.81818Q134.69876 125.53693 134.43314 125.36505Q134.16751 125.19318 133.79251 125.19318Q133.13626 125.19318 132.69876 125.63068Q132.27689 126.06818 132.27689 127.03693L132.27689 130.6463L131.21439 130.6463L131.21439 126.59943Q131.21439 125.8963 130.94876 125.55255Q130.69876 125.19318 130.12064 125.19318Q129.66751 125.19318 129.29251 125.42755Q128.91751 125.66193 128.74564 126.11505Q128.57376 126.56818 128.57376 127.41193L128.57376 130.6463L127.52688 130.6463ZM142.58939 129.88068Q141.99564 130.38068 141.44876 130.5838Q140.91751 130.78693 140.29251 130.78693Q139.26126 130.78693 138.71439 130.28693Q138.16751 129.78693 138.16751 129.00568Q138.16751 128.55255 138.37064 128.17755Q138.57376 127.78693 138.91751 127.56818Q139.26126 127.3338 139.68314 127.22443Q139.98001 127.13068 140.62064 127.05255Q141.88626 126.91193 142.49564 126.69318Q142.49564 126.47443 142.49564 126.42755Q142.49564 125.7713 142.19876 125.50568Q141.79251 125.16193 140.99564 125.16193Q140.26126 125.16193 139.90189 125.42755Q139.54251 125.67755 139.37064 126.3338L138.33939 126.19318Q138.48001 125.53693 138.80814 125.13068Q139.13626 124.72443 139.74564 124.50568Q140.35501 124.28693 141.15189 124.28693Q141.94876 124.28693 142.44876 124.47443Q142.94876 124.66193 143.18314 124.94318Q143.41751 125.22443 143.51126 125.66193Q143.55814 125.92755 143.55814 126.63068L143.55814 128.03693Q143.55814 129.50568 143.62064 129.8963Q143.69876 130.28693 143.90189 130.6463L142.79251 130.6463Q142.63626 130.31818 142.58939 129.88068ZM142.49564 127.5213Q141.91751 127.75568 140.77689 127.92755Q140.12064 128.0213 139.85501 128.1463Q139.58939 128.25568 139.43314 128.47443Q139.29251 128.69318 139.29251 128.97443Q139.29251 129.3963 139.60501 129.67755Q139.93314 129.9588 140.54251 129.9588Q141.15189 129.9588 141.62064 129.69318Q142.10501 129.42755 142.32376 128.9588Q142.49564 128.59943 142.49564 127.91193L142.49564 127.5213ZM145.52689 130.6463L145.52689 124.42755L146.46439 124.42755L146.46439 125.30255Q147.15189 124.28693 148.44876 124.28693Q149.01126 124.28693 149.48001 124.49005Q149.96439 124.69318 150.19876 125.0213Q150.43314 125.34943 150.52689 125.78693Q150.57376 126.0838 150.57376 126.81818L150.57376 130.6463L149.52689 130.6463L149.52689 126.86505Q149.52689 126.2088 149.40189 125.8963Q149.27689 125.5838 148.96439 125.3963Q148.65189 125.19318 148.23001 125.19318Q147.55814 125.19318 147.05814 125.63068Q146.57376 126.05255 146.57376 127.24005L146.57376 130.6463L145.52689 130.6463ZM152.48001 133.03693L152.35501 132.05255Q152.69876 132.1463 152.96439 132.1463Q153.30814 132.1463 153.51126 132.0213Q153.73001 131.91193 153.87064 131.7088Q153.96439 131.53693 154.19876 130.91193Q154.21439 130.8338 154.29251 130.66193L151.91751 124.42755L153.05814 124.42755L154.35501 128.0213Q154.60501 128.7088 154.80814 129.47443Q154.99564 128.74005 155.24564 128.05255L156.57376 124.42755L157.62064 124.42755L155.26126 130.75568Q154.87064 131.7713 154.66751 132.16193Q154.38626 132.69318 154.01126 132.92755Q153.65189 133.17755 153.15189 133.17755Q152.85501 133.17755 152.48001 133.03693Z" fill-rule="nonzero"/><path fill="#000000" d="M130.855 157.4611L130.855 148.86736L131.98 148.86736L131.98 157.4611L130.855 157.4611ZM133.52687 157.4611L133.52687 151.24236L134.46437 151.24236L134.46437 152.11736Q135.15187 151.10173 136.44875 151.10173Q137.01125 151.10173 137.48 151.30486Q137.96437 151.50798 138.19875 151.8361Q138.43312 152.16423 138.52687 152.60173Q138.57375 152.8986 138.57375 153.63298L138.57375 157.4611L137.52687 157.4611L137.52687 153.67986Q137.52687 153.0236 137.40187 152.7111Q137.27687 152.3986 136.96437 152.2111Q136.65187 152.00798 136.23 152.00798Q135.55812 152.00798 135.05812 152.44548Q134.57375 152.86736 134.57375 154.05486L134.57375 157.4611L133.52687 157.4611ZM144.55812 157.4611L144.55812 156.67986Q143.96437 157.60173 142.82375 157.60173Q142.07375 157.60173 141.44875 157.19548Q140.82375 156.7736 140.48 156.03923Q140.13625 155.30486 140.13625 154.35173Q140.13625 153.42986 140.44875 152.66423Q140.76125 151.8986 141.38625 151.50798Q142.01125 151.10173 142.77687 151.10173Q143.33937 151.10173 143.77687 151.3361Q144.21437 151.57048 144.49562 151.94548L144.49562 148.86736L145.5425 148.86736L145.5425 157.4611L144.55812 157.4611ZM141.23 154.35173Q141.23 155.55486 141.73 156.1486Q142.23 156.72673 142.9175 156.72673Q143.605 156.72673 144.08937 156.16423Q144.57375 155.60173 144.57375 154.44548Q144.57375 153.16423 144.07375 152.57048Q143.58937 151.97673 142.87062 151.97673Q142.1675 151.97673 141.69875 152.55486Q141.23 153.11736 141.23 154.35173ZM147.52687 150.0861L147.52687 148.86736L148.58937 148.86736L148.58937 150.0861L147.52687 150.0861ZM147.52687 157.4611L147.52687 151.24236L148.58937 151.24236L148.58937 157.4611L147.52687 157.4611ZM154.58937 156.69548Q153.99562 157.19548 153.44875 157.3986Q152.9175 157.60173 152.2925 157.60173Q151.26125 157.60173 150.71437 157.10173Q150.1675 156.60173 150.1675 155.82048Q150.1675 155.36736 150.37062 154.99236Q150.57375 154.60173 150.9175 154.38298Q151.26125 154.1486 151.68312 154.03923Q151.98 153.94548 152.62062 153.86736Q153.88625 153.72673 154.49562 153.50798Q154.49562 153.28923 154.49562 153.24236Q154.49562 152.5861 154.19875 152.32048Q153.7925 151.97673 152.99562 151.97673Q152.26125 151.97673 151.90187 152.24236Q151.5425 152.49236 151.37062 153.1486L150.33937 153.00798Q150.48 152.35173 150.80812 151.94548Q151.13625 151.53923 151.74562 151.32048Q152.355 151.10173 153.15187 151.10173Q153.94875 151.10173 154.44875 151.28923Q154.94875 151.47673 155.18312 151.75798Q155.4175 152.03923 155.51125 152.47673Q155.55812 152.74236 155.55812 153.44548L155.55812 154.85173Q155.55812 156.32048 155.62062 156.7111Q155.69875 157.10173 155.90187 157.4611L154.7925 157.4611Q154.63625 157.13298 154.58937 156.69548ZM154.49562 154.3361Q153.9175 154.57048 152.77687 154.74236Q152.12062 154.8361 151.855 154.9611Q151.58937 155.07048 151.43312 155.28923Q151.2925 155.50798 151.2925 155.78923Q151.2925 156.2111 151.605 156.49236Q151.93312 156.7736 152.5425 156.7736Q153.15187 156.7736 153.62062 156.50798Q154.105 156.24236 154.32375 155.7736Q154.49562 155.41423 154.49562 154.72673L154.49562 154.3361Z" fill-rule="nonzero"/><path fill="#000000" d="M123.07375 181.83842L124.105 181.6978Q124.13625 182.68217 124.46438 183.04155Q124.7925 183.40092 125.38625 183.40092Q125.80813 183.40092 126.12063 183.21342Q126.43313 183.0103 126.5425 182.68217Q126.6675 182.33842 126.6675 181.60405L126.6675 175.68217L127.7925 175.68217L127.7925 181.54155Q127.7925 182.61967 127.52688 183.21342Q127.27688 183.80717 126.71438 184.11967Q126.15188 184.41655 125.38625 184.41655Q124.26125 184.41655 123.65188 183.77592Q123.05813 183.11967 123.07375 181.83842ZM133.58939 183.5103Q132.99564 184.0103 132.44876 184.21342Q131.91751 184.41655 131.29251 184.41655Q130.26126 184.41655 129.71439 183.91655Q129.16751 183.41655 129.16751 182.6353Q129.16751 182.18217 129.37064 181.80717Q129.57376 181.41655 129.91751 181.1978Q130.26126 180.96342 130.68314 180.85405Q130.98001 180.7603 131.62064 180.68217Q132.88626 180.54155 133.49564 180.3228Q133.49564 180.10405 133.49564 180.05717Q133.49564 179.40092 133.19876 179.1353Q132.79251 178.79155 131.99564 178.79155Q131.26126 178.79155 130.90189 179.05717Q130.54251 179.30717 130.37064 179.96342L129.33939 179.8228Q129.48001 179.16655 129.80814 178.7603Q130.13626 178.35405 130.74564 178.1353Q131.35501 177.91655 132.15189 177.91655Q132.94876 177.91655 133.44876 178.10405Q133.94876 178.29155 134.18314 178.5728Q134.41751 178.85405 134.51126 179.29155Q134.55814 179.55717 134.55814 180.2603L134.55814 181.66655Q134.55814 183.1353 134.62064 183.52592Q134.69876 183.91655 134.90189 184.27592L133.79251 184.27592Q133.63626 183.9478 133.58939 183.5103ZM133.49564 181.15092Q132.91751 181.3853 131.77689 181.55717Q131.12064 181.65092 130.85501 181.77592Q130.58939 181.8853 130.43314 182.10405Q130.29251 182.3228 130.29251 182.60405Q130.29251 183.02592 130.60501 183.30717Q130.93314 183.58842 131.54251 183.58842Q132.15189 183.58842 132.62064 183.3228Q133.10501 183.05717 133.32376 182.58842Q133.49564 182.22905 133.49564 181.54155L133.49564 181.15092ZM136.52689 186.66655L136.52689 178.05717L137.48001 178.05717L137.48001 178.85405Q137.82376 178.3853 138.24564 178.15092Q138.68314 177.91655 139.29251 177.91655Q140.08939 177.91655 140.69876 178.3228Q141.30814 178.72905 141.60501 179.47905Q141.91751 180.22905 141.91751 181.11967Q141.91751 182.0728 141.57376 182.83842Q141.24564 183.60405 140.58939 184.0103Q139.93314 184.41655 139.21439 184.41655Q138.68314 184.41655 138.26126 184.1978Q137.83939 183.96342 137.57376 183.6353L137.57376 186.66655L136.52689 186.66655ZM137.48001 181.1978Q137.48001 182.40092 137.96439 182.97905Q138.44876 183.54155 139.13626 183.54155Q139.83939 183.54155 140.33939 182.9478Q140.83939 182.35405 140.83939 181.10405Q140.83939 179.91655 140.35501 179.33842Q139.87064 178.74467 139.18314 178.74467Q138.51126 178.74467 137.99564 179.36967Q137.48001 179.99467 137.48001 181.1978ZM147.58939 183.5103Q146.99564 184.0103 146.44876 184.21342Q145.91751 184.41655 145.29251 184.41655Q144.26126 184.41655 143.71439 183.91655Q143.16751 183.41655 143.16751 182.6353Q143.16751 182.18217 143.37064 181.80717Q143.57376 181.41655 143.91751 181.1978Q144.26126 180.96342 144.68314 180.85405Q144.98001 180.7603 145.62064 180.68217Q146.88626 180.54155 147.49564 180.3228Q147.49564 180.10405 147.49564 180.05717Q147.49564 179.40092 147.19876 179.1353Q146.79251 178.79155 145.99564 178.79155Q145.26126 178.79155 144.90189 179.05717Q144.54251 179.30717 144.37064 179.96342L143.33939 179.8228Q143.48001 179.16655 143.80814 178.7603Q144.13626 178.35405 144.74564 178.1353Q145.35501 177.91655 146.15189 177.91655Q146.94876 177.91655 147.44876 178.10405Q147.94876 178.29155 148.18314 178.5728Q148.41751 178.85405 148.51126 179.29155Q148.55814 179.55717 148.55814 180.2603L148.55814 181.66655Q148.55814 183.1353 148.62064 183.52592Q148.69876 183.91655 148.90189 184.27592L147.79251 184.27592Q147.63626 183.9478 147.58939 183.5103ZM147.49564 181.15092Q146.91751 181.3853 145.77689 181.55717Q145.12064 181.65092 144.85501 181.77592Q144.58939 181.8853 144.43314 182.10405Q144.29251 182.3228 144.29251 182.60405Q144.29251 183.02592 144.60501 183.30717Q144.93314 183.58842 145.54251 183.58842Q146.15189 183.58842 146.62064 183.3228Q147.10501 183.05717 147.32376 182.58842Q147.49564 182.22905 147.49564 181.54155L147.49564 181.15092ZM150.52689 184.27592L150.52689 178.05717L151.46439 178.05717L151.46439 178.93217Q152.15189 177.91655 153.44876 177.91655Q154.01126 177.91655 154.48001 178.11967Q154.96439 178.3228 155.19876 178.65092Q155.43314 178.97905 155.52689 179.41655Q155.57376 179.71342 155.57376 180.4478L155.57376 184.27592L154.52689 184.27592L154.52689 180.49467Q154.52689 179.83842 154.40189 179.52592Q154.27689 179.21342 153.96439 179.02592Q153.65189 178.8228 153.23001 178.8228Q152.55814 178.8228 152.05814 179.2603Q151.57376 179.68217 151.57376 180.86967L151.57376 184.27592L150.52689 184.27592Z" fill-rule="nonzero"/><path fill="#000000" d="M109.62063 211.09074L109.62063 202.497L111.33938 202.497L113.37063 208.57512Q113.65188 209.4345 113.77688 209.85637Q113.9175 209.38762 114.23 208.48137L116.2925 202.497L117.82375 202.497L117.82375 211.09074L116.73 211.09074L116.73 203.90324L114.23 211.09074L113.19875 211.09074L110.71438 203.77824L110.71438 211.09074L109.62063 211.09074ZM122.58938 210.32512Q121.99563 210.82512 121.44875 211.02824Q120.9175 211.23137 120.2925 211.23137Q119.26125 211.23137 118.71438 210.73137Q118.1675 210.23137 118.1675 209.45012Q118.1675 208.997 118.37063 208.622Q118.57375 208.23137 118.9175 208.01262Q119.26125 207.77824 119.68313 207.66887Q119.98 207.57512 120.62063 207.497Q121.88625 207.35637 122.49563 207.13762Q122.49563 206.91887 122.49563 206.872Q122.49563 206.21574 122.19875 205.95012Q121.7925 205.60637 120.99563 205.60637Q120.26125 205.60637 119.90188 205.872Q119.5425 206.122 119.37063 206.77824L118.33938 206.63762Q118.48 205.98137 118.80813 205.57512Q119.13625 205.16887 119.74563 204.95012Q120.355 204.73137 121.15188 204.73137Q121.94875 204.73137 122.44875 204.91887Q122.94875 205.10637 123.18313 205.38762Q123.4175 205.66887 123.51125 206.10637Q123.55813 206.372 123.55813 207.07512L123.55813 208.48137Q123.55813 209.95012 123.62063 210.34074Q123.69875 210.73137 123.90188 211.09074L122.7925 211.09074Q122.63625 210.76262 122.58938 210.32512ZM122.49563 207.96574Q121.9175 208.20012 120.77688 208.372Q120.12063 208.46574 119.855 208.59074Q119.58938 208.70012 119.43313 208.91887Q119.2925 209.13762 119.2925 209.41887Q119.2925 209.84074 119.605 210.122Q119.93313 210.40324 120.5425 210.40324Q121.15188 210.40324 121.62063 210.13762Q122.105 209.872 122.32375 209.40324Q122.49563 209.04387 122.49563 208.35637L122.49563 207.96574ZM125.49563 211.09074L125.49563 202.497L126.55813 202.497L126.55813 211.09074L125.49563 211.09074ZM132.58939 210.32512Q131.99564 210.82512 131.44876 211.02824Q130.91751 211.23137 130.29251 211.23137Q129.26126 211.23137 128.71439 210.73137Q128.16751 210.23137 128.16751 209.45012Q128.16751 208.997 128.37064 208.622Q128.57376 208.23137 128.91751 208.01262Q129.26126 207.77824 129.68314 207.66887Q129.98001 207.57512 130.62064 207.497Q131.88626 207.35637 132.49564 207.13762Q132.49564 206.91887 132.49564 206.872Q132.49564 206.21574 132.19876 205.95012Q131.79251 205.60637 130.99564 205.60637Q130.26126 205.60637 129.90189 205.872Q129.54251 206.122 129.37064 206.77824L128.33939 206.63762Q128.48001 205.98137 128.80814 205.57512Q129.13626 205.16887 129.74564 204.95012Q130.35501 204.73137 131.15189 204.73137Q131.94876 204.73137 132.44876 204.91887Q132.94876 205.10637 133.18314 205.38762Q133.41751 205.66887 133.51126 206.10637Q133.55814 206.372 133.55814 207.07512L133.55814 208.48137Q133.55814 209.95012 133.62064 210.34074Q133.69876 210.73137 133.90189 211.09074L132.79251 211.09074Q132.63626 210.76262 132.58939 210.32512ZM132.49564 207.96574Q131.91751 208.20012 130.77689 208.372Q130.12064 208.46574 129.85501 208.59074Q129.58939 208.70012 129.43314 208.91887Q129.29251 209.13762 129.29251 209.41887Q129.29251 209.84074 129.60501 210.122Q129.93314 210.40324 130.54251 210.40324Q131.15189 210.40324 131.62064 210.13762Q132.10501 209.872 132.32376 209.40324Q132.49564 209.04387 132.49564 208.35637L132.49564 207.96574ZM135.48001 213.48137L135.35501 212.497Q135.69876 212.59074 135.96439 212.59074Q136.30814 212.59074 136.51126 212.46574Q136.73001 212.35637 136.87064 212.15324Q136.96439 211.98137 137.19876 211.35637Q137.21439 211.27824 137.29251 211.10637L134.91751 204.872L136.05814 204.872L137.35501 208.46574Q137.60501 209.15324 137.80814 209.91887Q137.99564 209.1845 138.24564 208.497L139.57376 204.872L140.62064 204.872L138.26126 211.20012Q137.87064 212.21574 137.66751 212.60637Q137.38626 213.13762 137.01126 213.372Q136.65189 213.622 136.15189 213.622Q135.85501 213.622 135.48001 213.48137ZM140.10501 209.23137L141.13626 209.07512Q141.23001 209.70012 141.62064 210.02824Q142.02689 210.35637 142.76126 210.35637Q143.48001 210.35637 143.82376 210.07512Q144.18314 209.77824 144.18314 209.372Q144.18314 209.01262 143.87064 208.8095Q143.65189 208.66887 142.79251 208.45012Q141.63626 208.15324 141.18314 207.95012Q140.74564 207.73137 140.51126 207.35637Q140.27689 206.98137 140.27689 206.51262Q140.27689 206.10637 140.46439 205.747Q140.65189 205.38762 140.98001 205.15324Q141.23001 204.98137 141.65189 204.85637Q142.07376 204.73137 142.57376 204.73137Q143.29251 204.73137 143.83939 204.95012Q144.40189 205.15324 144.66751 205.51262Q144.93314 205.872 145.02689 206.46574L143.99564 206.60637Q143.93314 206.13762 143.58939 205.872Q143.26126 205.59074 142.63626 205.59074Q141.91751 205.59074 141.60501 205.84074Q141.29251 206.07512 141.29251 206.40324Q141.29251 206.60637 141.41751 206.76262Q141.55814 206.9345 141.82376 207.04387Q141.98001 207.10637 142.76126 207.3095Q143.88626 207.622 144.32376 207.8095Q144.76126 207.997 145.01126 208.35637Q145.26126 208.71574 145.26126 209.26262Q145.26126 209.79387 144.94876 210.26262Q144.65189 210.71574 144.07376 210.98137Q143.49564 211.23137 142.76126 211.23137Q141.54251 211.23137 140.90189 210.73137Q140.27689 210.21574 140.10501 209.23137ZM147.52689 203.71574L147.52689 202.497L148.58939 202.497L148.58939 203.71574L147.52689 203.71574ZM147.52689 211.09074L147.52689 204.872L148.58939 204.872L148.58939 211.09074L147.52689 211.09074ZM154.58939 210.32512Q153.99564 210.82512 153.44876 211.02824Q152.91751 211.23137 152.29251 211.23137Q151.26126 211.23137 150.71439 210.73137Q150.16751 210.23137 150.16751 209.45012Q150.16751 208.997 150.37064 208.622Q150.57376 208.23137 150.91751 208.01262Q151.26126 207.77824 151.68314 207.66887Q151.98001 207.57512 152.62064 207.497Q153.88626 207.35637 154.49564 207.13762Q154.49564 206.91887 154.49564 206.872Q154.49564 206.21574 154.19876 205.95012Q153.79251 205.60637 152.99564 205.60637Q152.26126 205.60637 151.90189 205.872Q151.54251 206.122 151.37064 206.77824L150.33939 206.63762Q150.48001 205.98137 150.80814 205.57512Q151.13626 205.16887 151.74564 204.95012Q152.35501 204.73137 153.15189 204.73137Q153.94876 204.73137 154.44876 204.91887Q154.94876 205.10637 155.18314 205.38762Q155.41751 205.66887 155.51126 206.10637Q155.55814 206.372 155.55814 207.07512L155.55814 208.48137Q155.55814 209.95012 155.62064 210.34074Q155.69876 210.73137 155.90189 211.09074L154.79251 211.09074Q154.63626 210.76262 154.58939 210.32512ZM154.49564 207.96574Q153.91751 208.20012 152.77689 208.372Q152.12064 208.46574 151.85501 208.59074Q151.58939 208.70012 151.43314 208.91887Q151.29251 209.13762 151.29251 209.41887Q151.29251 209.84074 151.60501 210.122Q151.93314 210.40324 152.54251 210.40324Q153.15189 210.40324 153.62064 210.13762Q154.10501 209.872 154.32376 209.40324Q154.49564 209.04387 154.49564 208.35637L154.49564 207.96574Z" fill-rule="nonzero"/><path fill="#000000" d="M100.27688 235.13992L101.33938 235.04617Q101.4175 235.70242 101.69875 236.10867Q101.98 236.51492 102.55813 236.78055Q103.15188 237.03055 103.88625 237.03055Q104.52688 237.03055 105.02688 236.84305Q105.52688 236.63992 105.76125 236.3118Q106.01125 235.96805 106.01125 235.57742Q106.01125 235.17117 105.77688 234.8743Q105.5425 234.5618 105.01125 234.35867Q104.65188 234.21805 103.46438 233.9368Q102.2925 233.65555 101.82375 233.40555Q101.19875 233.07742 100.90188 232.60867Q100.605 232.1243 100.605 231.53055Q100.605 230.88992 100.96438 230.32742Q101.33938 229.7493 102.0425 229.46805Q102.76125 229.17117 103.62063 229.17117Q104.57375 229.17117 105.30813 229.48367Q106.0425 229.78055 106.43313 230.38992Q106.82375 230.98367 106.855 231.73367L105.76125 231.8118Q105.6675 230.9993 105.15188 230.59305Q104.65188 230.17117 103.6675 230.17117Q102.63625 230.17117 102.1675 230.54617Q101.69875 230.92117 101.69875 231.45242Q101.69875 231.92117 102.02688 232.21805Q102.355 232.51492 103.73 232.82742Q105.12063 233.13992 105.63625 233.3743Q106.38625 233.73367 106.74563 234.26492Q107.105 234.78055 107.105 235.48367Q107.105 236.17117 106.71438 236.78055Q106.32375 237.3743 105.58938 237.71805Q104.855 238.04617 103.93313 238.04617Q102.76125 238.04617 101.96438 237.71805Q101.18313 237.3743 100.73 236.6868Q100.2925 235.9993 100.27688 235.13992ZM108.52688 230.53055L108.52688 229.3118L109.58938 229.3118L109.58938 230.53055L108.52688 230.53055ZM108.52688 237.90555L108.52688 231.6868L109.58938 231.6868L109.58938 237.90555L108.52688 237.90555ZM111.52688 237.90555L111.52688 231.6868L112.46438 231.6868L112.46438 232.5618Q113.15188 231.54617 114.44875 231.54617Q115.01125 231.54617 115.48 231.7493Q115.96438 231.95242 116.19875 232.28055Q116.43313 232.60867 116.52688 233.04617Q116.57375 233.34305 116.57375 234.07742L116.57375 237.90555L115.52688 237.90555L115.52688 234.1243Q115.52688 233.46805 115.40188 233.15555Q115.27688 232.84305 114.96438 232.65555Q114.65188 232.45242 114.23 232.45242Q113.55813 232.45242 113.05813 232.88992Q112.57375 233.3118 112.57375 234.4993L112.57375 237.90555L111.52688 237.90555ZM118.32375 238.42117L119.355 238.57742Q119.4175 239.04617 119.71438 239.26492Q120.105 239.5618 120.77688 239.5618Q121.51125 239.5618 121.90188 239.26492Q122.30813 238.96805 122.44875 238.45242Q122.5425 238.1243 122.52688 237.09305Q121.83938 237.90555 120.80813 237.90555Q119.52688 237.90555 118.82375 236.98367Q118.12063 236.04617 118.12063 234.76492Q118.12063 233.8743 118.43313 233.1243Q118.76125 232.35867 119.37063 231.95242Q119.98 231.54617 120.80813 231.54617Q121.9175 231.54617 122.63625 232.4368L122.63625 231.6868L123.605 231.6868L123.605 237.0618Q123.605 238.51492 123.30813 239.1243Q123.01125 239.73367 122.37063 240.07742Q121.73 240.4368 120.7925 240.4368Q119.68313 240.4368 118.99563 239.9368Q118.30813 239.4368 118.32375 238.42117ZM119.19875 234.6868Q119.19875 235.90555 119.68313 236.46805Q120.1675 237.03055 120.90188 237.03055Q121.63625 237.03055 122.12063 236.46805Q122.62063 235.90555 122.62063 234.71805Q122.62063 233.57742 122.105 232.9993Q121.605 232.42117 120.88625 232.42117Q120.18313 232.42117 119.68313 232.9993Q119.19875 233.5618 119.19875 234.6868ZM129.58939 237.13992Q128.99564 237.63992 128.44876 237.84305Q127.9175 238.04617 127.2925 238.04617Q126.26125 238.04617 125.71438 237.54617Q125.1675 237.04617 125.1675 236.26492Q125.1675 235.8118 125.37063 235.4368Q125.57375 235.04617 125.9175 234.82742Q126.26125 234.59305 126.68313 234.48367Q126.98 234.38992 127.62063 234.3118Q128.88626 234.17117 129.49564 233.95242Q129.49564 233.73367 129.49564 233.6868Q129.49564 233.03055 129.19876 232.76492Q128.79251 232.42117 127.99563 232.42117Q127.26125 232.42117 126.90188 232.6868Q126.5425 232.9368 126.37063 233.59305L125.33938 233.45242Q125.48 232.79617 125.80813 232.38992Q126.13625 231.98367 126.74563 231.76492Q127.355 231.54617 128.15189 231.54617Q128.94876 231.54617 129.44876 231.73367Q129.94876 231.92117 130.18314 232.20242Q130.41751 232.48367 130.51126 232.92117Q130.55814 233.1868 130.55814 233.88992L130.55814 235.29617Q130.55814 236.76492 130.62064 237.15555Q130.69876 237.54617 130.90189 237.90555L129.79251 237.90555Q129.63626 237.57742 129.58939 237.13992ZM129.49564 234.78055Q128.91751 235.01492 127.77688 235.1868Q127.12063 235.28055 126.855 235.40555Q126.58938 235.51492 126.43313 235.73367Q126.2925 235.95242 126.2925 236.23367Q126.2925 236.65555 126.605 236.9368Q126.93313 237.21805 127.5425 237.21805Q128.15189 237.21805 128.62064 236.95242Q129.10501 236.6868 129.32376 236.21805Q129.49564 235.85867 129.49564 235.17117L129.49564 234.78055ZM132.52689 240.29617L132.52689 231.6868L133.48001 231.6868L133.48001 232.48367Q133.82376 232.01492 134.24564 231.78055Q134.68314 231.54617 135.29251 231.54617Q136.08939 231.54617 136.69876 231.95242Q137.30814 232.35867 137.60501 233.10867Q137.91751 233.85867 137.91751 234.7493Q137.91751 235.70242 137.57376 236.46805Q137.24564 237.23367 136.58939 237.63992Q135.93314 238.04617 135.21439 238.04617Q134.68314 238.04617 134.26126 237.82742Q133.83939 237.59305 133.57376 237.26492L133.57376 240.29617L132.52689 240.29617ZM133.48001 234.82742Q133.48001 236.03055 133.96439 236.60867Q134.44876 237.17117 135.13626 237.17117Q135.83939 237.17117 136.33939 236.57742Q136.83939 235.98367 136.83939 234.73367Q136.83939 233.54617 136.35501 232.96805Q135.87064 232.3743 135.18314 232.3743Q134.51126 232.3743 133.99564 232.9993Q133.48001 233.6243 133.48001 234.82742ZM139.13626 234.79617Q139.13626 233.0618 140.08939 232.23367Q140.88626 231.54617 142.04251 231.54617Q143.32376 231.54617 144.13626 232.38992Q144.96439 233.21805 144.96439 234.70242Q144.96439 235.90555 144.60501 236.59305Q144.24564 237.28055 143.54251 237.67117Q142.85501 238.04617 142.04251 238.04617Q140.74564 238.04617 139.93314 237.21805Q139.13626 236.3743 139.13626 234.79617ZM140.21439 234.79617Q140.21439 235.98367 140.73001 236.57742Q141.26126 237.17117 142.04251 237.17117Q142.83939 237.17117 143.35501 236.57742Q143.87064 235.98367 143.87064 234.76492Q143.87064 233.60867 143.33939 233.01492Q142.82376 232.42117 142.04251 232.42117Q141.26126 232.42117 140.73001 233.01492Q140.21439 233.59305 140.21439 234.79617ZM146.51126 237.90555L146.51126 231.6868L147.46439 231.6868L147.46439 232.6243Q147.82376 231.96805 148.12064 231.76492Q148.43314 231.54617 148.80814 231.54617Q149.33939 231.54617 149.88626 231.8743L149.52689 232.85867Q149.13626 232.6243 148.76126 232.6243Q148.40189 232.6243 148.12064 232.84305Q147.85501 233.04617 147.74564 233.42117Q147.55814 233.98367 147.55814 234.63992L147.55814 237.90555L146.51126 237.90555ZM154.77689 235.90555L155.87064 236.03055Q155.62064 236.98367 154.91751 237.51492Q154.21439 238.04617 153.13626 238.04617Q151.77689 238.04617 150.96439 237.20242Q150.16751 236.35867 150.16751 234.84305Q150.16751 233.28055 150.98001 232.42117Q151.79251 231.54617 153.07376 231.54617Q154.32376 231.54617 155.10501 232.38992Q155.90189 233.23367 155.90189 234.78055Q155.90189 234.8743 155.90189 235.0618L151.26126 235.0618Q151.32376 236.09305 151.83939 236.63992Q152.35501 237.17117 153.13626 237.17117Q153.71439 237.17117 154.12064 236.8743Q154.54251 236.5618 154.77689 235.90555ZM151.32376 234.20242L154.79251 234.20242Q154.73001 233.40555 154.40189 233.01492Q153.88626 232.40555 153.08939 232.40555Q152.35501 232.40555 151.85501 232.88992Q151.37064 233.3743 151.32376 234.20242Z" fill-rule="nonzero"/><path fill="#000000" d="M99.2925 256.12662L100.43313 256.12662L100.43313 261.09537Q100.43313 262.39224 100.13625 263.15787Q99.83938 263.90787 99.07375 264.39224Q98.30813 264.861 97.07375 264.861Q95.87063 264.861 95.08938 264.45474Q94.32375 264.03287 93.99563 263.25162Q93.6675 262.45474 93.6675 261.09537L93.6675 256.12662L94.80813 256.12662L94.80813 261.07974Q94.80813 262.20474 95.01125 262.736Q95.23 263.26724 95.73 263.56412Q96.24563 263.84537 96.98 263.84537Q98.23 263.84537 98.76125 263.28287Q99.2925 262.70474 99.2925 261.07974L99.2925 256.12662ZM102.52688 264.72037L102.52688 258.50162L103.46438 258.50162L103.46438 259.37662Q104.15188 258.361 105.44875 258.361Q106.01125 258.361 106.48 258.56412Q106.96438 258.76724 107.19875 259.09537Q107.43313 259.4235 107.52688 259.861Q107.57375 260.15787 107.57375 260.89224L107.57375 264.72037L106.52688 264.72037L106.52688 260.93912Q106.52688 260.28287 106.40188 259.97037Q106.27688 259.65787 105.96438 259.47037Q105.65188 259.26724 105.23 259.26724Q104.55813 259.26724 104.05813 259.70474Q103.57375 260.12662 103.57375 261.31412L103.57375 264.72037L102.52688 264.72037ZM109.52688 257.34537L109.52688 256.12662L110.58938 256.12662L110.58938 257.34537L109.52688 257.34537ZM109.52688 264.72037L109.52688 258.50162L110.58938 258.50162L110.58938 264.72037L109.52688 264.72037ZM114.82375 263.78287L114.98 264.70474Q114.52688 264.7985 114.18313 264.7985Q113.605 264.7985 113.2925 264.62662Q112.98 264.43912 112.83938 264.14224Q112.71438 263.84537 112.71438 262.89224L112.71438 259.31412L111.94875 259.31412L111.94875 258.50162L112.71438 258.50162L112.71438 256.95474L113.76125 256.32974L113.76125 258.50162L114.82375 258.50162L114.82375 259.31412L113.76125 259.31412L113.76125 262.95474Q113.76125 263.40787 113.80813 263.53287Q113.87063 263.65787 113.99563 263.736Q114.12063 263.81412 114.355 263.81412Q114.5425 263.81412 114.82375 263.78287ZM119.77688 262.72037L120.87063 262.84537Q120.62063 263.7985 119.9175 264.32974Q119.21438 264.861 118.13625 264.861Q116.77688 264.861 115.96438 264.01724Q115.1675 263.1735 115.1675 261.65787Q115.1675 260.09537 115.98 259.236Q116.7925 258.361 118.07375 258.361Q119.32375 258.361 120.105 259.20474Q120.90188 260.0485 120.90188 261.59537Q120.90188 261.68912 120.90188 261.87662L116.26125 261.87662Q116.32375 262.90787 116.83938 263.45474Q117.355 263.986 118.13625 263.986Q118.71438 263.986 119.12063 263.68912Q119.5425 263.37662 119.77688 262.72037ZM116.32375 261.01724L119.7925 261.01724Q119.73 260.22037 119.40188 259.82974Q118.88625 259.22037 118.08938 259.22037Q117.355 259.22037 116.855 259.70474Q116.37063 260.18912 116.32375 261.01724ZM126.55813 264.72037L126.55813 263.93912Q125.96438 264.861 124.82375 264.861Q124.07375 264.861 123.44875 264.45474Q122.82375 264.03287 122.48 263.2985Q122.13625 262.56412 122.13625 261.611Q122.13625 260.68912 122.44875 259.9235Q122.76125 259.15787 123.38625 258.76724Q124.01125 258.361 124.77688 258.361Q125.33938 258.361 125.77688 258.59537Q126.21438 258.82974 126.49563 259.20474L126.49563 256.12662L127.5425 256.12662L127.5425 264.72037L126.55813 264.72037ZM123.23 261.611Q123.23 262.81412 123.73 263.40787Q124.23 263.986 124.9175 263.986Q125.605 263.986 126.08938 263.4235Q126.57375 262.861 126.57375 261.70474Q126.57375 260.4235 126.07375 259.82974Q125.58938 259.236 124.87063 259.236Q124.1675 259.236 123.69875 259.81412Q123.23 260.37662 123.23 261.611ZM131.71439 264.72037L135.01126 256.12662L136.23001 256.12662L139.74564 264.72037L138.46439 264.72037L137.44876 262.111L133.87064 262.111L132.91751 264.72037L131.71439 264.72037ZM134.19876 261.18912L137.10501 261.18912L136.21439 258.81412Q135.79251 257.736 135.60501 257.03287Q135.43314 257.861 135.13626 258.6735L134.19876 261.18912ZM139.51126 264.72037L139.51126 258.50162L140.46439 258.50162L140.46439 259.43912Q140.82376 258.78287 141.12064 258.57974Q141.43314 258.361 141.80814 258.361Q142.33939 258.361 142.88626 258.68912L142.52689 259.6735Q142.13626 259.43912 141.76126 259.43912Q141.40189 259.43912 141.12064 259.65787Q140.85501 259.861 140.74564 260.236Q140.55814 260.7985 140.55814 261.45474L140.55814 264.72037L139.51126 264.72037ZM147.58939 263.95474Q146.99564 264.45474 146.44876 264.65787Q145.91751 264.861 145.29251 264.861Q144.26126 264.861 143.71439 264.361Q143.16751 263.861 143.16751 263.07974Q143.16751 262.62662 143.37064 262.25162Q143.57376 261.861 143.91751 261.64224Q144.26126 261.40787 144.68314 261.2985Q144.98001 261.20474 145.62064 261.12662Q146.88626 260.986 147.49564 260.76724Q147.49564 260.5485 147.49564 260.50162Q147.49564 259.84537 147.19876 259.57974Q146.79251 259.236 145.99564 259.236Q145.26126 259.236 144.90189 259.50162Q144.54251 259.75162 144.37064 260.40787L143.33939 260.26724Q143.48001 259.611 143.80814 259.20474Q144.13626 258.7985 144.74564 258.57974Q145.35501 258.361 146.15189 258.361Q146.94876 258.361 147.44876 258.5485Q147.94876 258.736 148.18314 259.01724Q148.41751 259.2985 148.51126 259.736Q148.55814 260.00162 148.55814 260.70474L148.55814 262.111Q148.55814 263.57974 148.62064 263.97037Q148.69876 264.361 148.90189 264.72037L147.79251 264.72037Q147.63626 264.39224 147.58939 263.95474ZM147.49564 261.59537Q146.91751 261.82974 145.77689 262.00162Q145.12064 262.09537 144.85501 262.22037Q144.58939 262.32974 144.43314 262.5485Q144.29251 262.76724 144.29251 263.0485Q144.29251 263.47037 144.60501 263.75162Q144.93314 264.03287 145.54251 264.03287Q146.15189 264.03287 146.62064 263.76724Q147.10501 263.50162 147.32376 263.03287Q147.49564 262.6735 147.49564 261.986L147.49564 261.59537ZM151.49564 264.72037L150.51126 264.72037L150.51126 256.12662L151.57376 256.12662L151.57376 259.18912Q152.24564 258.361 153.27689 258.361Q153.85501 258.361 154.35501 258.59537Q154.87064 258.81412 155.19876 259.236Q155.54251 259.65787 155.73001 260.25162Q155.91751 260.84537 155.91751 261.51724Q155.91751 263.111 155.12064 263.986Q154.32376 264.861 153.23001 264.861Q152.12064 264.861 151.49564 263.93912L151.49564 264.72037ZM151.48001 261.56412Q151.48001 262.6735 151.79251 263.1735Q152.29251 263.986 153.13626 263.986Q153.82376 263.986 154.32376 263.39224Q154.83939 262.7985 154.83939 261.59537Q154.83939 260.37662 154.35501 259.7985Q153.87064 259.22037 153.18314 259.22037Q152.49564 259.22037 151.98001 259.82974Q151.48001 260.4235 151.48001 261.56412Z" fill-rule="nonzero"/><path fill="#000000" d="M74.2925 282.94144L75.43313 282.94144L75.43313 287.9102Q75.43313 289.20706 75.13625 289.9727Q74.83938 290.7227 74.07375 291.20706Q73.30813 291.6758 72.07375 291.6758Q70.87063 291.6758 70.08938 291.26956Q69.32375 290.8477 68.99563 290.06644Q68.6675 289.26956 68.6675 287.9102L68.6675 282.94144L69.80813 282.94144L69.80813 287.89456Q69.80813 289.01956 70.01125 289.5508Q70.23 290.08206 70.73 290.37894Q71.24563 290.6602 71.98 290.6602Q73.23 290.6602 73.76125 290.0977Q74.2925 289.51956 74.2925 287.89456L74.2925 282.94144ZM77.52688 291.5352L77.52688 285.31644L78.46438 285.31644L78.46438 286.19144Q79.15188 285.1758 80.44875 285.1758Q81.01125 285.1758 81.48 285.37894Q81.96438 285.58206 82.19875 285.9102Q82.43313 286.2383 82.52688 286.6758Q82.57375 286.9727 82.57375 287.70706L82.57375 291.5352L81.52688 291.5352L81.52688 287.75394Q81.52688 287.0977 81.40188 286.7852Q81.27688 286.4727 80.96438 286.2852Q80.65188 286.08206 80.23 286.08206Q79.55813 286.08206 79.05813 286.51956Q78.57375 286.94144 78.57375 288.12894L78.57375 291.5352L77.52688 291.5352ZM84.52688 284.1602L84.52688 282.94144L85.58938 282.94144L85.58938 284.1602L84.52688 284.1602ZM84.52688 291.5352L84.52688 285.31644L85.58938 285.31644L85.58938 291.5352L84.52688 291.5352ZM89.82375 290.5977L89.98 291.51956Q89.52688 291.6133 89.18313 291.6133Q88.605 291.6133 88.2925 291.44144Q87.98 291.25394 87.83938 290.95706Q87.71438 290.6602 87.71438 289.70706L87.71438 286.12894L86.94875 286.12894L86.94875 285.31644L87.71438 285.31644L87.71438 283.76956L88.76125 283.14456L88.76125 285.31644L89.82375 285.31644L89.82375 286.12894L88.76125 286.12894L88.76125 289.76956Q88.76125 290.2227 88.80813 290.3477Q88.87063 290.4727 88.99563 290.5508Q89.12063 290.62894 89.355 290.62894Q89.5425 290.62894 89.82375 290.5977ZM94.77688 289.5352L95.87063 289.6602Q95.62063 290.6133 94.9175 291.14456Q94.21438 291.6758 93.13625 291.6758Q91.77688 291.6758 90.96438 290.83206Q90.1675 289.9883 90.1675 288.4727Q90.1675 286.9102 90.98 286.0508Q91.7925 285.1758 93.07375 285.1758Q94.32375 285.1758 95.105 286.01956Q95.90188 286.8633 95.90188 288.4102Q95.90188 288.50394 95.90188 288.69144L91.26125 288.69144Q91.32375 289.7227 91.83938 290.26956Q92.355 290.8008 93.13625 290.8008Q93.71438 290.8008 94.12063 290.50394Q94.5425 290.19144 94.77688 289.5352ZM91.32375 287.83206L94.7925 287.83206Q94.73 287.0352 94.40188 286.64456Q93.88625 286.0352 93.08938 286.0352Q92.355 286.0352 91.855 286.51956Q91.37063 287.00394 91.32375 287.83206ZM101.55813 291.5352L101.55813 290.75394Q100.96438 291.6758 99.82375 291.6758Q99.07375 291.6758 98.44875 291.26956Q97.82375 290.8477 97.48 290.1133Q97.13625 289.37894 97.13625 288.4258Q97.13625 287.50394 97.44875 286.7383Q97.76125 285.9727 98.38625 285.58206Q99.01125 285.1758 99.77688 285.1758Q100.33938 285.1758 100.77688 285.4102Q101.21438 285.64456 101.49563 286.01956L101.49563 282.94144L102.5425 282.94144L102.5425 291.5352L101.55813 291.5352ZM98.23 288.4258Q98.23 289.62894 98.73 290.2227Q99.23 290.8008 99.9175 290.8008Q100.605 290.8008 101.08938 290.2383Q101.57375 289.6758 101.57375 288.51956Q101.57375 287.2383 101.07375 286.64456Q100.58938 286.0508 99.87063 286.0508Q99.1675 286.0508 98.69875 286.62894Q98.23 287.19144 98.23 288.4258ZM107.605 291.5352L107.605 282.94144L108.74563 282.94144L108.74563 287.20706L113.01125 282.94144L114.55813 282.94144L110.94875 286.4258L114.71438 291.5352L113.21438 291.5352L110.15188 287.19144L108.74563 288.5508L108.74563 291.5352L107.605 291.5352ZM115.52688 284.1602L115.52688 282.94144L116.58938 282.94144L116.58938 284.1602L115.52688 284.1602ZM115.52688 291.5352L115.52688 285.31644L116.58938 285.31644L116.58938 291.5352L115.52688 291.5352ZM118.52688 291.5352L118.52688 285.31644L119.46438 285.31644L119.46438 286.19144Q120.15188 285.1758 121.44875 285.1758Q122.01125 285.1758 122.48 285.37894Q122.96438 285.58206 123.19875 285.9102Q123.43313 286.2383 123.52688 286.6758Q123.57375 286.9727 123.57375 287.70706L123.57375 291.5352L122.52688 291.5352L122.52688 287.75394Q122.52688 287.0977 122.40188 286.7852Q122.27688 286.4727 121.96438 286.2852Q121.65188 286.08206 121.23 286.08206Q120.55813 286.08206 120.05813 286.51956Q119.57375 286.94144 119.57375 288.12894L119.57375 291.5352L118.52688 291.5352ZM125.32375 292.0508L126.355 292.20706Q126.4175 292.6758 126.71438 292.89456Q127.105 293.19144 127.77688 293.19144Q128.51126 293.19144 128.90189 292.89456Q129.30814 292.5977 129.44876 292.08206Q129.54251 291.75394 129.52689 290.7227Q128.83939 291.5352 127.80813 291.5352Q126.52688 291.5352 125.82375 290.6133Q125.12063 289.6758 125.12063 288.39456Q125.12063 287.50394 125.43313 286.75394Q125.76125 285.9883 126.37063 285.58206Q126.98 285.1758 127.80813 285.1758Q128.91751 285.1758 129.63626 286.06644L129.63626 285.31644L130.60501 285.31644L130.60501 290.69144Q130.60501 292.14456 130.30814 292.75394Q130.01126 293.3633 129.37064 293.70706Q128.73001 294.06644 127.7925 294.06644Q126.68313 294.06644 125.99563 293.56644Q125.30813 293.06644 125.32375 292.0508ZM126.19875 288.31644Q126.19875 289.5352 126.68313 290.0977Q127.1675 290.6602 127.90188 290.6602Q128.63626 290.6602 129.12064 290.0977Q129.62064 289.5352 129.62064 288.3477Q129.62064 287.20706 129.10501 286.62894Q128.60501 286.0508 127.88625 286.0508Q127.18313 286.0508 126.68313 286.62894Q126.19875 287.19144 126.19875 288.31644ZM136.55814 291.5352L136.55814 290.75394Q135.96439 291.6758 134.82376 291.6758Q134.07376 291.6758 133.44876 291.26956Q132.82376 290.8477 132.48001 290.1133Q132.13626 289.37894 132.13626 288.4258Q132.13626 287.50394 132.44876 286.7383Q132.76126 285.9727 133.38626 285.58206Q134.01126 285.1758 134.77689 285.1758Q135.33939 285.1758 135.77689 285.4102Q136.21439 285.64456 136.49564 286.01956L136.49564 282.94144L137.54251 282.94144L137.54251 291.5352L136.55814 291.5352ZM133.23001 288.4258Q133.23001 289.62894 133.73001 290.2227Q134.23001 290.8008 134.91751 290.8008Q135.60501 290.8008 136.08939 290.2383Q136.57376 289.6758 136.57376 288.51956Q136.57376 287.2383 136.07376 286.64456Q135.58939 286.0508 134.87064 286.0508Q134.16751 286.0508 133.69876 286.62894Q133.23001 287.19144 133.23001 288.4258ZM139.13626 288.4258Q139.13626 286.69144 140.08939 285.8633Q140.88626 285.1758 142.04251 285.1758Q143.32376 285.1758 144.13626 286.01956Q144.96439 286.8477 144.96439 288.33206Q144.96439 289.5352 144.60501 290.2227Q144.24564 290.9102 143.54251 291.3008Q142.85501 291.6758 142.04251 291.6758Q140.74564 291.6758 139.93314 290.8477Q139.13626 290.00394 139.13626 288.4258ZM140.21439 288.4258Q140.21439 289.6133 140.73001 290.20706Q141.26126 290.8008 142.04251 290.8008Q142.83939 290.8008 143.35501 290.20706Q143.87064 289.6133 143.87064 288.39456Q143.87064 287.2383 143.33939 286.64456Q142.82376 286.0508 142.04251 286.0508Q141.26126 286.0508 140.73001 286.64456Q140.21439 287.2227 140.21439 288.4258ZM146.52689 291.5352L146.52689 285.31644L147.46439 285.31644L147.46439 286.19144Q147.76126 285.7227 148.24564 285.45706Q148.73001 285.1758 149.35501 285.1758Q150.04251 285.1758 150.48001 285.45706Q150.93314 285.7383 151.10501 286.25394Q151.85501 285.1758 153.02689 285.1758Q153.96439 285.1758 154.44876 285.69144Q154.94876 286.19144 154.94876 287.26956L154.94876 291.5352L153.90189 291.5352L153.90189 287.6133Q153.90189 286.9883 153.79251 286.70706Q153.69876 286.4258 153.43314 286.25394Q153.16751 286.08206 152.79251 286.08206Q152.13626 286.08206 151.69876 286.51956Q151.27689 286.95706 151.27689 287.9258L151.27689 291.5352L150.21439 291.5352L150.21439 287.4883Q150.21439 286.7852 149.94876 286.44144Q149.69876 286.08206 149.12064 286.08206Q148.66751 286.08206 148.29251 286.31644Q147.91751 286.5508 147.74564 287.00394Q147.57376 287.45706 147.57376 288.3008L147.57376 291.5352L146.52689 291.5352Z" fill-rule="nonzero"/><path fill="#000000" d="M76.2925 309.75626L77.43313 309.75626L77.43313 314.725Q77.43313 316.02188 77.13625 316.7875Q76.83938 317.5375 76.07375 318.02188Q75.30813 318.49063 74.07375 318.49063Q72.87063 318.49063 72.08938 318.08438Q71.32375 317.6625 70.99563 316.88126Q70.6675 316.08438 70.6675 314.725L70.6675 309.75626L71.80813 309.75626L71.80813 314.70938Q71.80813 315.83438 72.01125 316.36563Q72.23 316.89688 72.73 317.19376Q73.24563 317.475 73.98 317.475Q75.23 317.475 75.76125 316.9125Q76.2925 316.33438 76.2925 314.70938L76.2925 309.75626ZM79.52688 318.35L79.52688 312.13126L80.46438 312.13126L80.46438 313.00626Q81.15188 311.99063 82.44875 311.99063Q83.01125 311.99063 83.48 312.19376Q83.96438 312.39688 84.19875 312.725Q84.43313 313.05313 84.52688 313.49063Q84.57375 313.7875 84.57375 314.52188L84.57375 318.35L83.52688 318.35L83.52688 314.56876Q83.52688 313.9125 83.40188 313.6Q83.27688 313.2875 82.96438 313.1Q82.65188 312.89688 82.23 312.89688Q81.55813 312.89688 81.05813 313.33438Q80.57375 313.75626 80.57375 314.94376L80.57375 318.35L79.52688 318.35ZM86.52688 310.975L86.52688 309.75626L87.58938 309.75626L87.58938 310.975L86.52688 310.975ZM86.52688 318.35L86.52688 312.13126L87.58938 312.13126L87.58938 318.35L86.52688 318.35ZM91.82375 317.4125L91.98 318.33438Q91.52688 318.42813 91.18313 318.42813Q90.605 318.42813 90.2925 318.25626Q89.98 318.06876 89.83938 317.77188Q89.71438 317.475 89.71438 316.52188L89.71438 312.94376L88.94875 312.94376L88.94875 312.13126L89.71438 312.13126L89.71438 310.58438L90.76125 309.95938L90.76125 312.13126L91.82375 312.13126L91.82375 312.94376L90.76125 312.94376L90.76125 316.58438Q90.76125 317.0375 90.80813 317.1625Q90.87063 317.2875 90.99563 317.36563Q91.12063 317.44376 91.355 317.44376Q91.5425 317.44376 91.82375 317.4125ZM96.77688 316.35L97.87063 316.475Q97.62063 317.42813 96.9175 317.95938Q96.21438 318.49063 95.13625 318.49063Q93.77688 318.49063 92.96438 317.64688Q92.1675 316.80313 92.1675 315.2875Q92.1675 313.725 92.98 312.86563Q93.7925 311.99063 95.07375 311.99063Q96.32375 311.99063 97.105 312.83438Q97.90188 313.67813 97.90188 315.225Q97.90188 315.31876 97.90188 315.50626L93.26125 315.50626Q93.32375 316.5375 93.83938 317.08438Q94.355 317.61563 95.13625 317.61563Q95.71438 317.61563 96.12063 317.31876Q96.5425 317.00626 96.77688 316.35ZM93.32375 314.64688L96.7925 314.64688Q96.73 313.85 96.40188 313.45938Q95.88625 312.85 95.08938 312.85Q94.355 312.85 93.855 313.33438Q93.37063 313.81876 93.32375 314.64688ZM103.55813 318.35L103.55813 317.56876Q102.96438 318.49063 101.82375 318.49063Q101.07375 318.49063 100.44875 318.08438Q99.82375 317.6625 99.48 316.92813Q99.13625 316.19376 99.13625 315.24063Q99.13625 314.31876 99.44875 313.55313Q99.76125 312.7875 100.38625 312.39688Q101.01125 311.99063 101.77688 311.99063Q102.33938 311.99063 102.77688 312.225Q103.21438 312.45938 103.49563 312.83438L103.49563 309.75626L104.5425 309.75626L104.5425 318.35L103.55813 318.35ZM100.23 315.24063Q100.23 316.44376 100.73 317.0375Q101.23 317.61563 101.9175 317.61563Q102.605 317.61563 103.08938 317.05313Q103.57375 316.49063 103.57375 315.33438Q103.57375 314.05313 103.07375 313.45938Q102.58938 312.86563 101.87063 312.86563Q101.1675 312.86563 100.69875 313.44376Q100.23 314.00626 100.23 315.24063ZM109.27688 315.58438L110.33938 315.49063Q110.4175 316.14688 110.69875 316.55313Q110.98 316.95938 111.55813 317.225Q112.15188 317.475 112.88625 317.475Q113.52688 317.475 114.02688 317.2875Q114.52688 317.08438 114.76125 316.75626Q115.01125 316.4125 115.01125 316.02188Q115.01125 315.61563 114.77688 315.31876Q114.5425 315.00626 114.01125 314.80313Q113.65188 314.6625 112.46438 314.38126Q111.2925 314.1 110.82375 313.85Q110.19875 313.52188 109.90188 313.05313Q109.605 312.56876 109.605 311.975Q109.605 311.33438 109.96438 310.77188Q110.33938 310.19376 111.0425 309.9125Q111.76125 309.61563 112.62063 309.61563Q113.57375 309.61563 114.30813 309.92813Q115.0425 310.225 115.43313 310.83438Q115.82375 311.42813 115.855 312.17813L114.76125 312.25626Q114.6675 311.44376 114.15188 311.0375Q113.65188 310.61563 112.6675 310.61563Q111.63625 310.61563 111.1675 310.99063Q110.69875 311.36563 110.69875 311.89688Q110.69875 312.36563 111.02688 312.6625Q111.355 312.95938 112.73 313.27188Q114.12063 313.58438 114.63625 313.81876Q115.38625 314.17813 115.74563 314.70938Q116.105 315.225 116.105 315.92813Q116.105 316.61563 115.71438 317.225Q115.32375 317.81876 114.58938 318.1625Q113.855 318.49063 112.93313 318.49063Q111.76125 318.49063 110.96438 318.1625Q110.18313 317.81876 109.73 317.13126Q109.2925 316.44376 109.27688 315.58438ZM119.82375 317.4125L119.98 318.33438Q119.52688 318.42813 119.18313 318.42813Q118.605 318.42813 118.2925 318.25626Q117.98 318.06876 117.83938 317.77188Q117.71438 317.475 117.71438 316.52188L117.71438 312.94376L116.94875 312.94376L116.94875 312.13126L117.71438 312.13126L117.71438 310.58438L118.76125 309.95938L118.76125 312.13126L119.82375 312.13126L119.82375 312.94376L118.76125 312.94376L118.76125 316.58438Q118.76125 317.0375 118.80813 317.1625Q118.87063 317.2875 118.99563 317.36563Q119.12063 317.44376 119.355 317.44376Q119.5425 317.44376 119.82375 317.4125ZM124.58938 317.58438Q123.99563 318.08438 123.44875 318.2875Q122.9175 318.49063 122.2925 318.49063Q121.26125 318.49063 120.71438 317.99063Q120.1675 317.49063 120.1675 316.70938Q120.1675 316.25626 120.37063 315.88126Q120.57375 315.49063 120.9175 315.27188Q121.26125 315.0375 121.68313 314.92813Q121.98 314.83438 122.62063 314.75626Q123.88625 314.61563 124.49563 314.39688Q124.49563 314.17813 124.49563 314.13126Q124.49563 313.475 124.19875 313.20938Q123.7925 312.86563 122.99563 312.86563Q122.26125 312.86563 121.90188 313.13126Q121.5425 313.38126 121.37063 314.0375L120.33938 313.89688Q120.48 313.24063 120.80813 312.83438Q121.13625 312.42813 121.74563 312.20938Q122.355 311.99063 123.15188 311.99063Q123.94875 311.99063 124.44875 312.17813Q124.94875 312.36563 125.18313 312.64688Q125.4175 312.92813 125.51125 313.36563Q125.55813 313.63126 125.55813 314.33438L125.55813 315.74063Q125.55813 317.20938 125.62063 317.6Q125.69875 317.99063 125.90188 318.35L124.7925 318.35Q124.63625 318.02188 124.58938 317.58438ZM124.49563 315.225Q123.9175 315.45938 122.77688 315.63126Q122.12063 315.725 121.855 315.85Q121.58938 315.95938 121.43313 316.17813Q121.2925 316.39688 121.2925 316.67813Q121.2925 317.1 121.605 317.38126Q121.93313 317.6625 122.5425 317.6625Q123.15188 317.6625 123.62063 317.39688Q124.105 317.13126 124.32375 316.6625Q124.49563 316.30313 124.49563 315.61563L124.49563 315.225ZM129.82376 317.4125L129.98001 318.33438Q129.52689 318.42813 129.18314 318.42813Q128.60501 318.42813 128.29251 318.25626Q127.98 318.06876 127.83938 317.77188Q127.71438 317.475 127.71438 316.52188L127.71438 312.94376L126.94875 312.94376L126.94875 312.13126L127.71438 312.13126L127.71438 310.58438L128.76126 309.95938L128.76126 312.13126L129.82376 312.13126L129.82376 312.94376L128.76126 312.94376L128.76126 316.58438Q128.76126 317.0375 128.80814 317.1625Q128.87064 317.2875 128.99564 317.36563Q129.12064 317.44376 129.35501 317.44376Q129.54251 317.44376 129.82376 317.4125ZM134.77689 316.35L135.87064 316.475Q135.62064 317.42813 134.91751 317.95938Q134.21439 318.49063 133.13626 318.49063Q131.77689 318.49063 130.96439 317.64688Q130.16751 316.80313 130.16751 315.2875Q130.16751 313.725 130.98001 312.86563Q131.79251 311.99063 133.07376 311.99063Q134.32376 311.99063 135.10501 312.83438Q135.90189 313.67813 135.90189 315.225Q135.90189 315.31876 135.90189 315.50626L131.26126 315.50626Q131.32376 316.5375 131.83939 317.08438Q132.35501 317.61563 133.13626 317.61563Q133.71439 317.61563 134.12064 317.31876Q134.54251 317.00626 134.77689 316.35ZM131.32376 314.64688L134.79251 314.64688Q134.73001 313.85 134.40189 313.45938Q133.88626 312.85 133.08939 312.85Q132.35501 312.85 131.85501 313.33438Q131.37064 313.81876 131.32376 314.64688ZM137.10501 316.49063L138.13626 316.33438Q138.23001 316.95938 138.62064 317.2875Q139.02689 317.61563 139.76126 317.61563Q140.48001 317.61563 140.82376 317.33438Q141.18314 317.0375 141.18314 316.63126Q141.18314 316.27188 140.87064 316.06876Q140.65189 315.92813 139.79251 315.70938Q138.63626 315.4125 138.18314 315.20938Q137.74564 314.99063 137.51126 314.61563Q137.27689 314.24063 137.27689 313.77188Q137.27689 313.36563 137.46439 313.00626Q137.65189 312.64688 137.98001 312.4125Q138.23001 312.24063 138.65189 312.11563Q139.07376 311.99063 139.57376 311.99063Q140.29251 311.99063 140.83939 312.20938Q141.40189 312.4125 141.66751 312.77188Q141.93314 313.13126 142.02689 313.725L140.99564 313.86563Q140.93314 313.39688 140.58939 313.13126Q140.26126 312.85 139.63626 312.85Q138.91751 312.85 138.60501 313.1Q138.29251 313.33438 138.29251 313.6625Q138.29251 313.86563 138.41751 314.02188Q138.55814 314.19376 138.82376 314.30313Q138.98001 314.36563 139.76126 314.56876Q140.88626 314.88126 141.32376 315.06876Q141.76126 315.25626 142.01126 315.61563Q142.26126 315.975 142.26126 316.52188Q142.26126 317.05313 141.94876 317.52188Q141.65189 317.975 141.07376 318.24063Q140.49564 318.49063 139.76126 318.49063Q138.54251 318.49063 137.90189 317.99063Q137.27689 317.475 137.10501 316.49063ZM147.13626 315.24063Q147.13626 313.50626 148.08939 312.67813Q148.88626 311.99063 150.04251 311.99063Q151.32376 311.99063 152.13626 312.83438Q152.96439 313.6625 152.96439 315.14688Q152.96439 316.35 152.60501 317.0375Q152.24564 317.725 151.54251 318.11563Q150.85501 318.49063 150.04251 318.49063Q148.74564 318.49063 147.93314 317.6625Q147.13626 316.81876 147.13626 315.24063ZM148.21439 315.24063Q148.21439 316.42813 148.73001 317.02188Q149.26126 317.61563 150.04251 317.61563Q150.83939 317.61563 151.35501 317.02188Q151.87064 316.42813 151.87064 315.20938Q151.87064 314.05313 151.33939 313.45938Q150.82376 312.86563 150.04251 312.86563Q149.26126 312.86563 148.73001 313.45938Q148.21439 314.0375 148.21439 315.24063ZM154.77689 318.35L154.77689 312.94376L153.83939 312.94376L153.83939 312.13126L154.77689 312.13126L154.77689 311.45938Q154.77689 310.83438 154.88626 310.5375Q155.04251 310.11563 155.41751 309.86563Q155.80814 309.61563 156.49564 309.61563Q156.94876 309.61563 157.48001 309.725L157.32376 310.63126Q156.99564 310.58438 156.69876 310.58438Q156.21439 310.58438 156.01126 310.7875Q155.82376 310.99063 155.82376 311.55313L155.82376 312.13126L157.04251 312.13126L157.04251 312.94376L155.82376 312.94376L155.82376 318.35L154.77689 318.35Z" fill-rule="nonzero"/><path fill="#000000" d="M159.73 345.21564Q159.73 343.6844 160.0425 342.7625Q160.355 341.825 160.96437 341.325Q161.58937 340.825 162.52687 340.825Q163.21437 340.825 163.73 341.10626Q164.26125 341.3875 164.605 341.91876Q164.94875 342.4344 165.13625 343.1844Q165.32375 343.9344 165.32375 345.21564Q165.32375 346.73126 165.01125 347.65314Q164.71437 348.575 164.08937 349.09064Q163.48 349.59064 162.52687 349.59064Q161.2925 349.59064 160.57375 348.7Q159.73 347.6375 159.73 345.21564ZM160.80812 345.21564Q160.80812 347.325 161.30812 348.02814Q161.80812 348.73126 162.52687 348.73126Q163.26125 348.73126 163.74562 348.02814Q164.24562 347.325 164.24562 345.21564Q164.24562 343.09064 163.74562 342.40314Q163.26125 341.7 162.51125 341.7Q161.7925 341.7 161.355 342.3094Q160.80812 343.09064 160.80812 345.21564Z" fill-rule="nonzero"/><path fill="#000000" d="M269.95688 348.4344L269.95688 349.45L264.26938 349.45Q264.26938 349.075 264.39438 348.71564Q264.61313 348.1375 265.08188 347.575Q265.56625 347.0125 266.4725 346.27814Q267.87875 345.1219 268.36313 344.45Q268.86313 343.77814 268.86313 343.1844Q268.86313 342.5594 268.41 342.1375Q267.95688 341.7 267.23813 341.7Q266.4725 341.7 266.01938 342.15314Q265.56625 342.60626 265.55063 343.41876L264.4725 343.3094Q264.58188 342.09064 265.30063 341.46564Q266.035 340.825 267.26938 340.825Q268.50375 340.825 269.2225 341.5125Q269.94125 342.2 269.94125 343.21564Q269.94125 343.73126 269.7225 344.23126Q269.51938 344.71564 269.01938 345.27814Q268.535 345.825 267.41 346.77814Q266.45688 347.575 266.17563 347.8719Q265.91 348.15314 265.73813 348.4344L269.95688 348.4344Z" fill-rule="nonzero"/><path fill="#000000" d="M372.465 349.45L372.465 347.3875L368.74625 347.3875L368.74625 346.41876L372.66812 340.85626L373.5275 340.85626L373.5275 346.41876L374.68375 346.41876L374.68375 347.3875L373.5275 347.3875L373.5275 349.45L372.465 349.45ZM372.465 346.41876L372.465 342.5594L369.7775 346.41876L372.465 346.41876Z" fill-rule="nonzero"/><path fill="#000000" d="M479.23874 342.96564L478.19186 343.04376Q478.05124 342.41876 477.80124 342.1375Q477.36374 341.6844 476.73874 341.6844Q476.23874 341.6844 475.8481 341.96564Q475.36374 342.34064 475.06686 343.04376Q474.7856 343.73126 474.77 345.0125Q475.145 344.4344 475.69186 344.15314Q476.25436 343.8719 476.86374 343.8719Q477.9106 343.8719 478.645 344.65314Q479.395 345.4344 479.395 346.65314Q479.395 347.46564 479.0356 348.16876Q478.69186 348.85626 478.0825 349.23126Q477.4731 349.59064 476.7075 349.59064Q475.37936 349.59064 474.55124 348.6219Q473.7231 347.65314 473.7231 345.4344Q473.7231 342.9344 474.645 341.8094Q475.44186 340.825 476.80124 340.825Q477.81686 340.825 478.4575 341.40314Q479.11374 341.96564 479.23874 342.96564ZM474.94186 346.66876Q474.94186 347.21564 475.1606 347.71564Q475.395 348.2 475.80124 348.46564Q476.2231 348.73126 476.69186 348.73126Q477.3481 348.73126 477.8325 348.2Q478.31686 347.65314 478.31686 346.73126Q478.31686 345.84064 477.8325 345.325Q477.36374 344.8094 476.645 344.8094Q475.92624 344.8094 475.42624 345.325Q474.94186 345.84064 474.94186 346.66876Z" fill-rule="nonzero"/><path fill="#000000" d="M580.075 344.79376Q579.41876 344.54376 579.09064 344.10626Q578.77814 343.65314 578.77814 343.04376Q578.77814 342.10626 579.45 341.46564Q580.1375 340.825 581.2469 340.825Q582.3719 340.825 583.0594 341.48126Q583.7469 342.1375 583.7469 343.075Q583.7469 343.66876 583.4344 344.10626Q583.1219 344.54376 582.48126 344.79376Q583.27814 345.04376 583.6844 345.6219Q584.09064 346.2 584.09064 346.9969Q584.09064 348.09064 583.3094 348.84064Q582.54376 349.59064 581.2625 349.59064Q579.9969 349.59064 579.21564 348.84064Q578.4344 348.09064 578.4344 346.96564Q578.4344 346.1219 578.85626 345.5594Q579.29376 344.9969 580.075 344.79376ZM579.85626 342.9969Q579.85626 343.60626 580.2469 343.9969Q580.65314 344.3875 581.27814 344.3875Q581.8875 344.3875 582.27814 344.0125Q582.66876 343.6219 582.66876 343.0594Q582.66876 342.48126 582.2625 342.09064Q581.85626 341.6844 581.2625 341.6844Q580.65314 341.6844 580.2469 342.075Q579.85626 342.46564 579.85626 342.9969ZM579.52814 346.96564Q579.52814 347.41876 579.73126 347.84064Q579.95 348.2625 580.3719 348.4969Q580.79376 348.73126 581.27814 348.73126Q582.02814 348.73126 582.5125 348.2469Q583.0125 347.7625 583.0125 347.0125Q583.0125 346.2469 582.5125 345.7469Q582.0125 345.2469 581.2469 345.2469Q580.4969 345.2469 580.0125 345.7469Q579.52814 346.23126 579.52814 346.96564Z" fill-rule="nonzero"/><path fill="#757575" d="M30.315624 32.534374L32.20625 33.003124Q31.6125 35.346874 30.065624 36.58125Q28.51875 37.8 26.26875 37.8Q23.95625 37.8 22.503124 36.8625Q21.065624 35.909374 20.3 34.128124Q19.55 32.33125 19.55 30.284374Q19.55 28.05 20.39375 26.39375Q21.253124 24.721874 22.83125 23.8625Q24.409374 22.9875 26.3 22.9875Q28.45625 22.9875 29.909374 24.08125Q31.378124 25.175 31.95625 27.159374L30.096874 27.596874Q29.596874 26.034374 28.64375 25.33125Q27.70625 24.6125 26.26875 24.6125Q24.6125 24.6125 23.503124 25.409374Q22.39375 26.190624 21.940624 27.534374Q21.503124 28.8625 21.503124 30.26875Q21.503124 32.096874 22.034374 33.471874Q22.565624 34.83125 23.690624 35.503124Q24.815624 36.175 26.1125 36.175Q27.70625 36.175 28.815624 35.253124Q29.925 34.33125 30.315624 32.534374ZM33.221874 32.3625Q33.221874 29.4875 34.815624 28.096874Q36.159374 26.940624 38.08125 26.940624Q40.221874 26.940624 41.565624 28.346874Q42.925 29.753124 42.925 32.221874Q42.925 34.221874 42.33125 35.378124Q41.7375 36.51875 40.58125 37.159374Q39.440624 37.784374 38.08125 37.784374Q35.89375 37.784374 34.55 36.39375Q33.221874 34.9875 33.221874 32.3625ZM35.01875 32.3625Q35.01875 34.3625 35.878124 35.346874Q36.753124 36.33125 38.08125 36.33125Q39.39375 36.33125 40.253124 35.346874Q41.128124 34.346874 41.128124 32.3Q41.128124 30.378124 40.253124 29.39375Q39.378124 28.39375 38.08125 28.39375Q36.753124 28.39375 35.878124 29.39375Q35.01875 30.378124 35.01875 32.3625ZM51.659374 37.55L51.659374 36.01875Q50.45625 37.784374 48.378124 37.784374Q47.45625 37.784374 46.659374 37.440624Q45.8625 37.08125 45.471874 36.55Q45.096874 36.01875 44.940624 35.2375Q44.83125 34.721874 44.83125 33.596874L44.83125 27.175L46.58125 27.175L46.58125 32.925Q46.58125 34.3 46.690624 34.784374Q46.8625 35.471874 47.39375 35.878124Q47.940624 36.26875 48.721874 36.26875Q49.51875 36.26875 50.20625 35.8625Q50.909374 35.45625 51.190624 34.76875Q51.4875 34.065624 51.4875 32.7375L51.4875 27.175L53.2375 27.175L53.2375 37.55L51.659374 37.55ZM54.8625 37.55L54.8625 27.175L56.45625 27.175L56.45625 28.659374Q57.596874 26.940624 59.753124 26.940624Q60.690624 26.940624 61.471874 27.284374Q62.26875 27.6125 62.659374 28.159374Q63.05 28.70625 63.20625 29.45625Q63.3 29.95625 63.3 31.175L63.3 37.55L61.534374 37.55L61.534374 31.2375Q61.534374 30.159374 61.33125 29.628124Q61.128124 29.096874 60.596874 28.784374Q60.08125 28.471874 59.378124 28.471874Q58.253124 28.471874 57.440624 29.190624Q56.628124 29.89375 56.628124 31.878124L56.628124 37.55L54.8625 37.55ZM68.70625 35.971874L68.95625 37.534374Q68.22188 37.690624 67.62813 37.690624Q66.675 37.690624 66.14375 37.39375Q65.62813 37.08125 65.40938 36.596874Q65.19063 36.096874 65.19063 34.51875L65.19063 28.55L63.909374 28.55L63.909374 27.175L65.19063 27.175L65.19063 24.6125L66.94063 23.55L66.94063 27.175L68.70625 27.175L68.70625 28.55L66.94063 28.55L66.94063 34.6125Q66.94063 35.3625 67.03438 35.58125Q67.12813 35.784374 67.33125 35.925Q67.55 36.05 67.94063 36.05Q68.22188 36.05 68.70625 35.971874ZM70.84688 37.55L70.84688 27.175L72.425 27.175L72.425 28.753124Q73.03438 27.64375 73.55 27.3Q74.06563 26.940624 74.675 26.940624Q75.56563 26.940624 76.4875 27.503124L75.87813 29.14375Q75.2375 28.753124 74.59688 28.753124Q74.01875 28.753124 73.55 29.1125Q73.09688 29.45625 72.89375 30.065624Q72.6125 31.003124 72.6125 32.1125L72.6125 37.55L70.84688 37.55ZM77.78438 41.55L77.59688 39.89375Q78.175 40.05 78.59688 40.05Q79.19063 40.05 79.53438 39.846874Q79.89375 39.659374 80.1125 39.315624Q80.28438 39.05 80.65938 38.003124Q80.70625 37.846874 80.81563 37.565624L76.87813 27.175L78.76875 27.175L80.925 33.190624Q81.34688 34.33125 81.675 35.58125Q81.9875 34.378124 82.39375 33.221874L84.6125 27.175L86.37813 27.175L82.425 37.721874Q81.8 39.440624 81.44063 40.08125Q80.97188 40.95625 80.3625 41.346874Q79.76875 41.753124 78.925 41.753124Q78.40938 41.753124 77.78438 41.55ZM93.22188 32.3625Q93.22188 29.4875 94.81563 28.096874Q96.15938 26.940624 98.08125 26.940624Q100.22188 26.940624 101.56563 28.346874Q102.925 29.753124 102.925 32.221874Q102.925 34.221874 102.33125 35.378124Q101.7375 36.51875 100.58125 37.159374Q99.44063 37.784374 98.08125 37.784374Q95.89375 37.784374 94.55 36.39375Q93.22188 34.9875 93.22188 32.3625ZM95.01875 32.3625Q95.01875 34.3625 95.87813 35.346874Q96.75313 36.33125 98.08125 36.33125Q99.39375 36.33125 100.25313 35.346874Q101.12813 34.346874 101.12813 32.3Q101.12813 30.378124 100.25313 29.39375Q99.37813 28.39375 98.08125 28.39375Q96.75313 28.39375 95.87813 29.39375Q95.01875 30.378124 95.01875 32.3625ZM104.84688 37.55L104.84688 27.175L106.425 27.175L106.425 28.753124Q107.03438 27.64375 107.55 27.3Q108.06563 26.940624 108.675 26.940624Q109.56563 26.940624 110.4875 27.503124L109.87813 29.14375Q109.2375 28.753124 108.59688 28.753124Q108.01875 28.753124 107.55 29.1125Q107.09688 29.45625 106.89375 30.065624Q106.6125 31.003124 106.6125 32.1125L106.6125 37.55L104.84688 37.55ZM116.51875 37.55L122.01875 23.2375L124.06563 23.2375L129.925 37.55L127.76875 37.55L126.09688 33.20625L120.1125 33.20625L118.53438 37.55L116.51875 37.55ZM120.65938 31.675L125.50313 31.675L124.01875 27.70625Q123.33125 25.89375 123.00313 24.7375Q122.72188 26.1125 122.22188 27.471874L120.65938 31.675ZM130.84688 37.55L130.84688 27.175L132.425 27.175L132.425 28.753124Q133.03438 27.64375 133.55 27.3Q134.06563 26.940624 134.675 26.940624Q135.56563 26.940624 136.4875 27.503124L135.87813 29.14375Q135.2375 28.753124 134.59688 28.753124Q134.01875 28.753124 133.55 29.1125Q133.09688 29.45625 132.89375 30.065624Q132.6125 31.003124 132.6125 32.1125L132.6125 37.55L130.84688 37.55ZM144.97188 34.20625L146.78438 34.440624Q146.3625 36.01875 145.19063 36.909374Q144.03438 37.784374 142.22188 37.784374Q139.95625 37.784374 138.6125 36.39375Q137.28438 34.9875 137.28438 32.45625Q137.28438 29.83125 138.62813 28.39375Q139.97188 26.940624 142.12813 26.940624Q144.20625 26.940624 145.51875 28.3625Q146.84688 29.76875 146.84688 32.346874Q146.84688 32.503124 146.83125 32.815624L139.09688 32.815624Q139.19063 34.51875 140.06563 35.425Q140.94063 36.33125 142.2375 36.33125Q143.20625 36.33125 143.87813 35.83125Q144.56563 35.315624 144.97188 34.20625ZM139.19063 31.3625L144.9875 31.3625Q144.87813 30.065624 144.33125 29.409374Q143.4875 28.39375 142.14375 28.39375Q140.94063 28.39375 140.1125 29.20625Q139.28438 30.003124 139.19063 31.3625ZM155.64375 36.26875Q154.65938 37.096874 153.75313 37.440624Q152.84688 37.784374 151.81563 37.784374Q150.1125 37.784374 149.19063 36.95625Q148.26875 36.1125 148.26875 34.815624Q148.26875 34.05 148.6125 33.425Q148.97188 32.8 149.53438 32.425Q150.09688 32.034374 150.8 31.83125Q151.31563 31.70625 152.3625 31.565624Q154.4875 31.315624 155.4875 30.971874Q155.50313 30.6125 155.50313 30.503124Q155.50313 29.440624 155.00313 28.9875Q154.33125 28.39375 153.00313 28.39375Q151.75313 28.39375 151.15938 28.83125Q150.58125 29.26875 150.3 30.378124L148.58125 30.14375Q148.81563 29.034374 149.34688 28.3625Q149.87813 27.675 150.89375 27.315624Q151.90938 26.940624 153.25313 26.940624Q154.58125 26.940624 155.40938 27.253124Q156.2375 27.565624 156.62813 28.05Q157.01875 28.51875 157.175 29.2375Q157.26875 29.690624 157.26875 30.8625L157.26875 33.20625Q157.26875 35.659374 157.37813 36.315624Q157.4875 36.95625 157.83125 37.55L155.9875 37.55Q155.72188 37.003124 155.64375 36.26875ZM155.4875 32.346874Q154.53438 32.7375 152.6125 33.003124Q151.53438 33.159374 151.08125 33.3625Q150.64375 33.55 150.39375 33.925Q150.14375 34.3 150.14375 34.76875Q150.14375 35.471874 150.675 35.940624Q151.20625 36.409374 152.2375 36.409374Q153.25313 36.409374 154.03438 35.971874Q154.83125 35.51875 155.20625 34.753124Q155.4875 34.14375 155.4875 32.9875L155.4875 32.346874ZM172.64375 36.26875Q171.65938 37.096874 170.75313 37.440624Q169.84688 37.784374 168.81563 37.784374Q167.1125 37.784374 166.19063 36.95625Q165.26875 36.1125 165.26875 34.815624Q165.26875 34.05 165.6125 33.425Q165.97188 32.8 166.53438 32.425Q167.09688 32.034374 167.8 31.83125Q168.31563 31.70625 169.3625 31.565624Q171.4875 31.315624 172.4875 30.971874Q172.50313 30.6125 172.50313 30.503124Q172.50313 29.440624 172.00313 28.9875Q171.33125 28.39375 170.00313 28.39375Q168.75313 28.39375 168.15938 28.83125Q167.58125 29.26875 167.3 30.378124L165.58125 30.14375Q165.81563 29.034374 166.34688 28.3625Q166.87813 27.675 167.89375 27.315624Q168.90938 26.940624 170.25313 26.940624Q171.58125 26.940624 172.40938 27.253124Q173.2375 27.565624 173.62813 28.05Q174.01875 28.51875 174.175 29.2375Q174.26875 29.690624 174.26875 30.8625L174.26875 33.20625Q174.26875 35.659374 174.37813 36.315624Q174.4875 36.95625 174.83125 37.55L172.9875 37.55Q172.72188 37.003124 172.64375 36.26875ZM172.4875 32.346874Q171.53438 32.7375 169.6125 33.003124Q168.53438 33.159374 168.08125 33.3625Q167.64375 33.55 167.39375 33.925Q167.14375 34.3 167.14375 34.76875Q167.14375 35.471874 167.675 35.940624Q168.20625 36.409374 169.2375 36.409374Q170.25313 36.409374 171.03438 35.971874Q171.83125 35.51875 172.20625 34.753124Q172.4875 34.14375 172.4875 32.9875L172.4875 32.346874ZM176.8625 37.55L176.8625 27.175L178.45625 27.175L178.45625 28.659374Q179.59688 26.940624 181.75313 26.940624Q182.69063 26.940624 183.47188 27.284374Q184.26875 27.6125 184.65938 28.159374Q185.05 28.70625 185.20625 29.45625Q185.3 29.95625 185.3 31.175L185.3 37.55L183.53438 37.55L183.53438 31.2375Q183.53438 30.159374 183.33125 29.628124Q183.12813 29.096874 182.59688 28.784374Q182.08125 28.471874 181.37813 28.471874Q180.25313 28.471874 179.44063 29.190624Q178.62813 29.89375 178.62813 31.878124L178.62813 37.55L176.8625 37.55ZM193.59688 37.55L193.59688 36.2375Q192.6125 37.784374 190.69063 37.784374Q189.45625 37.784374 188.40938 37.096874Q187.37813 36.409374 186.8 35.190624Q186.2375 33.971874 186.2375 32.378124Q186.2375 30.815624 186.75313 29.55Q187.26875 28.284374 188.3 27.6125Q189.34688 26.940624 190.6125 26.940624Q191.55 26.940624 192.28438 27.346874Q193.01875 27.7375 193.4875 28.3625L193.4875 23.2375L195.22188 23.2375L195.22188 37.55L193.59688 37.55ZM188.03438 32.378124Q188.03438 34.3625 188.87813 35.346874Q189.72188 36.33125 190.8625 36.33125Q192.01875 36.33125 192.81563 35.39375Q193.62813 34.45625 193.62813 32.51875Q193.62813 30.39375 192.8 29.39375Q191.9875 28.39375 190.78438 28.39375Q189.6125 28.39375 188.81563 29.3625Q188.03438 30.315624 188.03438 32.378124ZM203.83125 37.55L203.83125 23.2375L205.58125 23.2375L205.58125 37.55L203.83125 37.55ZM207.22188 32.3625Q207.22188 29.4875 208.81563 28.096874Q210.15938 26.940624 212.08125 26.940624Q214.22188 26.940624 215.56563 28.346874Q216.925 29.753124 216.925 32.221874Q216.925 34.221874 216.33125 35.378124Q215.7375 36.51875 214.58125 37.159374Q213.44063 37.784374 212.08125 37.784374Q209.89375 37.784374 208.55 36.39375Q207.22188 34.9875 207.22188 32.3625ZM209.01875 32.3625Q209.01875 34.3625 209.87813 35.346874Q210.75313 36.33125 212.08125 36.33125Q213.39375 36.33125 214.25313 35.346874Q215.12813 34.346874 215.12813 32.3Q215.12813 30.378124 214.25313 29.39375Q213.37813 28.39375 212.08125 28.39375Q210.75313 28.39375 209.87813 29.39375Q209.01875 30.378124 209.01875 32.3625ZM218.55 38.409374L220.25313 38.659374Q220.3625 39.45625 220.84688 39.815624Q221.50313 40.3 222.64375 40.3Q223.8625 40.3 224.51875 39.815624Q225.19063 39.33125 225.425 38.45625Q225.56563 37.909374 225.55 36.190624Q224.39375 37.55 222.675 37.55Q220.53438 37.55 219.3625 36.003124Q218.19063 34.45625 218.19063 32.3Q218.19063 30.815624 218.72188 29.565624Q219.26875 28.315624 220.28438 27.628124Q221.31563 26.940624 222.69063 26.940624Q224.51875 26.940624 225.72188 28.425L225.72188 27.175L227.33125 27.175L227.33125 36.14375Q227.33125 38.565624 226.83125 39.565624Q226.34688 40.58125 225.26875 41.159374Q224.20625 41.753124 222.64375 41.753124Q220.8 41.753124 219.64375 40.925Q218.50313 40.096874 218.55 38.409374ZM220.00313 32.175Q220.00313 34.221874 220.81563 35.159374Q221.62813 36.096874 222.84688 36.096874Q224.05 36.096874 224.8625 35.159374Q225.69063 34.221874 225.69063 32.2375Q225.69063 30.33125 224.84688 29.3625Q224.00313 28.39375 222.81563 28.39375Q221.64375 28.39375 220.81563 29.346874Q220.00313 30.3 220.00313 32.175ZM233.22188 41.753124Q231.76875 39.925 230.76875 37.471874Q229.76875 35.003124 229.76875 32.3625Q229.76875 30.034374 230.51875 27.909374Q231.39375 25.440624 233.22188 22.9875L234.4875 22.9875Q233.3 25.01875 232.925 25.89375Q232.33125 27.2375 231.9875 28.70625Q231.56563 30.534374 231.56563 32.378124Q231.56563 37.065624 234.4875 41.753124L233.22188 41.753124ZM236.8625 41.51875L236.8625 27.175L238.47188 27.175L238.47188 28.51875Q239.03438 27.7375 239.7375 27.346874Q240.45625 26.940624 241.47188 26.940624Q242.8 26.940624 243.81563 27.628124Q244.83125 28.315624 245.34688 29.565624Q245.87813 30.8 245.87813 32.284374Q245.87813 33.878124 245.3 35.159374Q244.7375 36.425 243.64375 37.1125Q242.55 37.784374 241.34688 37.784374Q240.47188 37.784374 239.76875 37.409374Q239.08125 37.034374 238.62813 36.471874L238.62813 41.51875L236.8625 41.51875ZM238.45625 32.425Q238.45625 34.425 239.26875 35.378124Q240.08125 36.33125 241.2375 36.33125Q242.40938 36.33125 243.2375 35.346874Q244.08125 34.3625 244.08125 32.26875Q244.08125 30.3 243.25313 29.315624Q242.44063 28.315624 241.31563 28.315624Q240.19063 28.315624 239.31563 29.378124Q238.45625 30.425 238.45625 32.425ZM247.22188 32.3625Q247.22188 29.4875 248.81563 28.096874Q250.15938 26.940624 252.08125 26.940624Q254.22188 26.940624 255.56563 28.346874Q256.925 29.753124 256.925 32.221874Q256.925 34.221874 256.33124 35.378124Q255.7375 36.51875 254.58125 37.159374Q253.44063 37.784374 252.08125 37.784374Q249.89375 37.784374 248.55 36.39375Q247.22188 34.9875 247.22188 32.3625ZM249.01875 32.3625Q249.01875 34.3625 249.87813 35.346874Q250.75313 36.33125 252.08125 36.33125Q253.39375 36.33125 254.25313 35.346874Q255.12813 34.346874 255.12813 32.3Q255.12813 30.378124 254.25313 29.39375Q253.37813 28.39375 252.08125 28.39375Q250.75313 28.39375 249.87813 29.39375Q249.01875 30.378124 249.01875 32.3625ZM258.8625 41.51875L258.8625 27.175L260.47186 27.175L260.47186 28.51875Q261.03436 27.7375 261.7375 27.346874Q262.45624 26.940624 263.47186 26.940624Q264.8 26.940624 265.8156 27.628124Q266.83124 28.315624 267.34686 29.565624Q267.8781 30.8 267.8781 32.284374Q267.8781 33.878124 267.3 35.159374Q266.7375 36.425 265.64374 37.1125Q264.55 37.784374 263.34686 37.784374Q262.47186 37.784374 261.76874 37.409374Q261.08124 37.034374 260.6281 36.471874L260.6281 41.51875L258.8625 41.51875ZM260.45624 32.425Q260.45624 34.425 261.26874 35.378124Q262.08124 36.33125 263.2375 36.33125Q264.40936 36.33125 265.2375 35.346874Q266.08124 34.3625 266.08124 32.26875Q266.08124 30.3 265.2531 29.315624Q264.4406 28.315624 263.3156 28.315624Q262.1906 28.315624 261.3156 29.378124Q260.45624 30.425 260.45624 32.425ZM276.65936 37.55L276.65936 36.01875Q275.45624 37.784374 273.3781 37.784374Q272.45624 37.784374 271.65936 37.440624Q270.8625 37.08125 270.47186 36.55Q270.09686 36.01875 269.9406 35.2375Q269.83124 34.721874 269.83124 33.596874L269.83124 27.175L271.58124 27.175L271.58124 32.925Q271.58124 34.3 271.6906 34.784374Q271.8625 35.471874 272.39374 35.878124Q272.9406 36.26875 273.72186 36.26875Q274.51874 36.26875 275.20624 35.8625Q275.90936 35.45625 276.1906 34.76875Q276.4875 34.065624 276.4875 32.7375L276.4875 27.175L278.2375 27.175L278.2375 37.55L276.65936 37.55ZM279.83124 37.55L279.83124 23.2375L281.58124 23.2375L281.58124 37.55L279.83124 37.55ZM290.64374 36.26875Q289.65936 37.096874 288.7531 37.440624Q287.84686 37.784374 286.8156 37.784374Q285.1125 37.784374 284.1906 36.95625Q283.26874 36.1125 283.26874 34.815624Q283.26874 34.05 283.6125 33.425Q283.97186 32.8 284.53436 32.425Q285.09686 32.034374 285.8 31.83125Q286.3156 31.70625 287.3625 31.565624Q289.4875 31.315624 290.4875 30.971874Q290.5031 30.6125 290.5031 30.503124Q290.5031 29.440624 290.0031 28.9875Q289.33124 28.39375 288.0031 28.39375Q286.7531 28.39375 286.15936 28.83125Q285.58124 29.26875 285.3 30.378124L283.58124 30.14375Q283.8156 29.034374 284.34686 28.3625Q284.8781 27.675 285.89374 27.315624Q286.90936 26.940624 288.2531 26.940624Q289.58124 26.940624 290.40936 27.253124Q291.2375 27.565624 291.6281 28.05Q292.01874 28.51875 292.175 29.2375Q292.26874 29.690624 292.26874 30.8625L292.26874 33.20625Q292.26874 35.659374 292.3781 36.315624Q292.4875 36.95625 292.83124 37.55L290.9875 37.55Q290.72186 37.003124 290.64374 36.26875ZM290.4875 32.346874Q289.53436 32.7375 287.6125 33.003124Q286.53436 33.159374 286.08124 33.3625Q285.64374 33.55 285.39374 33.925Q285.14374 34.3 285.14374 34.76875Q285.14374 35.471874 285.675 35.940624Q286.20624 36.409374 287.2375 36.409374Q288.2531 36.409374 289.03436 35.971874Q289.83124 35.51875 290.20624 34.753124Q290.4875 34.14375 290.4875 32.9875L290.4875 32.346874ZM298.70624 35.971874L298.95624 37.534374Q298.22186 37.690624 297.6281 37.690624Q296.675 37.690624 296.14374 37.39375Q295.6281 37.08125 295.40936 36.596874Q295.1906 36.096874 295.1906 34.51875L295.1906 28.55L293.90936 28.55L293.90936 27.175L295.1906 27.175L295.1906 24.6125L296.9406 23.55L296.9406 27.175L298.70624 27.175L298.70624 28.55L296.9406 28.55L296.9406 34.6125Q296.9406 35.3625 297.03436 35.58125Q297.1281 35.784374 297.33124 35.925Q297.55 36.05 297.9406 36.05Q298.22186 36.05 298.70624 35.971874ZM300.8781 25.253124L300.8781 23.2375L302.64374 23.2375L302.64374 25.253124L300.8781 25.253124ZM300.8781 37.55L300.8781 27.175L302.64374 27.175L302.64374 37.55L300.8781 37.55ZM304.22186 32.3625Q304.22186 29.4875 305.8156 28.096874Q307.15936 26.940624 309.08124 26.940624Q311.22186 26.940624 312.5656 28.346874Q313.925 29.753124 313.925 32.221874Q313.925 34.221874 313.33124 35.378124Q312.7375 36.51875 311.58124 37.159374Q310.4406 37.784374 309.08124 37.784374Q306.89374 37.784374 305.55 36.39375Q304.22186 34.9875 304.22186 32.3625ZM306.01874 32.3625Q306.01874 34.3625 306.8781 35.346874Q307.7531 36.33125 309.08124 36.33125Q310.39374 36.33125 311.2531 35.346874Q312.1281 34.346874 312.1281 32.3Q312.1281 30.378124 311.2531 29.39375Q310.3781 28.39375 309.08124 28.39375Q307.7531 28.39375 306.8781 29.39375Q306.01874 30.378124 306.01874 32.3625ZM315.8625 37.55L315.8625 27.175L317.45624 27.175L317.45624 28.659374Q318.59686 26.940624 320.7531 26.940624Q321.6906 26.940624 322.47186 27.284374Q323.26874 27.6125 323.65936 28.159374Q324.05 28.70625 324.20624 29.45625Q324.3 29.95625 324.3 31.175L324.3 37.55L322.53436 37.55L322.53436 31.2375Q322.53436 30.159374 322.33124 29.628124Q322.1281 29.096874 321.59686 28.784374Q321.08124 28.471874 320.3781 28.471874Q319.2531 28.471874 318.4406 29.190624Q317.6281 29.89375 317.6281 31.878124L317.6281 37.55L315.8625 37.55ZM327.01874 41.753124L325.76874 41.753124Q328.675 37.065624 328.675 32.378124Q328.675 30.534374 328.26874 28.7375Q327.925 27.26875 327.33124 25.925Q326.95624 25.034374 325.76874 22.9875L327.01874 22.9875Q328.8625 25.440624 329.7375 27.909374Q330.4875 30.034374 330.4875 32.3625Q330.4875 35.003124 329.47186 37.471874Q328.47186 39.925 327.01874 41.753124Z" fill-rule="nonzero"/></svg>